<svg width="1021" height="457" version="1.1" xmlns="http://www.w3.org/2000/svg" desc="Created with imagetracer.js version 1.2.6" ><path fill="rgb(0,0,0)" stroke="rgb(0,0,0)" stroke-width="1" opacity="0" d="M 0 0 L 134 0.5 L 101.5 10 L 84.5 18 Q 59.6 31.1 41 50.5 L 37.5 55 L 35 56.5 L 20 77.5 L 11 95.5 L 6 109.5 L 5 116.5 L 3 119.5 L 0.5 138 L 0 0 Z " /><path fill="rgb(0,0,0)" stroke="rgb(0,0,0)" stroke-width="1" opacity="0" d="M 178.5 0 L 1021 0 L 1021 384.5 L 1020 384.5 Q 1015.5 360.5 998.5 349 L 980.5 339 L 964.5 336 L 483.5 336 L 463.5 341 L 451.5 348 L 440 359.5 L 436 364.5 L 429 379.5 L 427 389.5 L 427 404.5 L 429 414.5 L 435 428.5 L 447.5 443 L 450.5 445 Q 459.3 453.3 473 456.5 L 0 457 L 0.5 180 L 2 193.5 L 8 217.5 L 18 244.5 L 27 262.5 L 52 298.5 L 77.5 325 L 89 333 L 90.5 336 L 116.5 353 L 139.5 365 Q 149.1 366.9 155.5 372 L 191.5 384 L 213.5 388 L 216.5 390 L 228.5 391 L 235.5 393 L 243.5 393 L 244.5 394 L 254.5 394 L 255.5 395 L 300.5 395 L 301.5 394 L 310.5 394 L 311.5 393 L 318.5 393 L 319.5 392 L 336.5 390 L 340.5 388 L 363.5 383 L 392.5 372 L 408.5 364 L 433.5 348 Q 454 333 471 314.5 L 472.5 312 L 475 310.5 L 483.5 300 L 487 302.5 L 488.5 305 L 495.5 309 L 510.5 309 Q 542.5 298 562 274.5 L 568 266.5 L 575 249.5 L 575 232.5 L 571 222.5 L 564.5 216 L 560.5 213 L 548.5 212 Q 537.9 215.4 532 223.5 Q 532.8 225.8 530.5 225 L 529 225.5 L 577 146.5 L 582 135 L 560.5 135 L 559 136.5 L 492 251.5 L 484 263.5 L 467 281.5 L 467 283 L 465.5 283 L 447.5 300 L 440.5 304 L 436 301.5 L 435 295.5 L 439 283.5 L 478 217.5 L 478 215.5 L 476.5 214 L 467.5 214 L 464.5 215 Q 462.8 212.3 456.5 214 L 453 217.5 L 424 271.5 L 420 283.5 L 420 292.5 Q 422.3 300.3 427.5 305 L 434 308.5 L 424.5 316 L 406.5 326 Q 396.3 328.3 389.5 334 L 360.5 344 L 316.5 353 L 290.5 354 L 289.5 355 L 271.5 355 L 270.5 354 L 243.5 353 L 237.5 351 L 220.5 349 L 196.5 343 L 177.5 336 Q 141.9 321.1 117 295.5 L 117 294 L 115 294 Q 116.1 291.3 113.5 292 L 106 282 L 103 280.5 L 84 251.5 L 68 213.5 L 64 195.5 L 62 191.5 L 59 174.5 L 58 159.5 L 57 158.5 L 57 122.5 L 58 121.5 L 60 104.5 L 65 87.5 L 79 59 Q 81.7 60.1 81 57.5 L 96.5 41 L 104.5 35 L 120.5 27 L 131.5 24 L 147.5 22 L 148.5 23 L 161.5 24 L 183.5 31 Q 206 42.5 222 60.5 L 241 84.5 L 256 110.5 L 261 123.5 L 264 127.5 L 276 159.5 L 279 172.5 L 282 178.5 L 293 227.5 L 296 252.5 L 298 257.5 L 298 265.5 L 299 266.5 L 299 275.5 L 300 276.5 L 301 295.5 L 302 296.5 L 302 307.5 L 303 308.5 L 303 319.5 L 304.5 321 L 308 320 L 310 315.5 L 326 297.5 L 330 291 L 333 289.5 L 369 246.5 L 372 241 Q 374.7 242.1 374 239.5 L 394 216.5 L 397 211 Q 399.7 212.1 399 209.5 L 414.5 191 Q 416.8 191.8 416 189.5 L 461 136.5 L 464 131 Q 466.7 132.1 466 129.5 L 486 106.5 L 489 101 L 493 98.5 L 514.5 72 L 527.5 68 L 532.5 68 L 543.5 65 L 549.5 65 L 562 62 L 561.5 59 L 544.5 59 L 543.5 58 L 476.5 57 L 474 58 L 440 107 Q 437.3 105.9 438 108.5 L 352.5 225 L 332.5 225 L 331 223.5 L 326 192.5 L 319 165.5 L 303 121.5 L 285 85.5 L 273 67.5 L 256.5 47 L 252 43.5 L 247.5 38 Q 233.4 24.1 215.5 14 L 189.5 3 L 178.5 1 L 178.5 0 Z M 962 133 L 957 139 L 945 163 L 905 232 L 900 243 L 883 268 L 867 287 Q 868 289 866 288 L 864 291 L 853 301 L 846 304 L 842 303 L 839 299 L 840 293 L 848 274 L 881 218 Q 882 214 880 213 L 878 214 L 860 214 L 855 222 L 853 217 L 847 212 L 832 213 Q 828 216 822 217 Q 803 226 788 238 L 784 243 L 782 244 L 775 253 Q 776 255 773 254 L 770 260 L 759 271 L 752 274 Q 743 276 741 272 L 738 268 Q 736 255 740 249 Q 755 242 767 231 Q 774 226 775 216 L 771 212 L 766 212 L 758 216 Q 743 227 736 247 L 729 253 L 734 240 Q 732 233 735 232 L 734 223 L 732 219 Q 730 213 724 212 L 715 213 L 707 219 L 701 227 L 698 229 L 691 238 Q 692 240 689 239 L 688 243 L 675 260 Q 667 270 654 275 L 643 275 Q 655 258 661 236 L 661 227 L 658 218 L 650 212 L 634 213 L 625 217 L 605 229 L 593 239 L 582 252 Q 583 254 580 253 Q 574 263 572 277 Q 573 291 579 300 Q 584 306 593 309 L 606 309 L 617 304 L 622 300 Q 632 291 640 279 L 644 280 L 655 280 L 660 278 L 675 267 L 687 253 L 701 232 L 714 219 L 719 217 L 721 221 L 716 237 L 713 240 L 708 252 L 705 255 L 701 264 L 676 305 L 677 308 L 681 307 L 693 307 L 694 308 L 698 308 Q 697 305 700 306 L 714 279 L 733 256 L 733 269 L 736 276 L 746 280 Q 755 279 762 275 L 767 271 L 766 276 L 767 290 L 771 300 Q 775 306 784 309 L 795 309 L 804 304 L 824 281 Q 823 278 826 279 L 825 281 Q 823 295 829 303 L 839 309 L 849 309 L 859 303 L 874 287 Q 873 284 876 285 L 882 277 L 881 279 L 881 296 L 885 303 L 894 309 Q 902 310 907 308 L 919 299 L 936 279 L 953 255 Q 955 249 951 250 L 934 273 Q 935 275 932 274 Q 930 280 925 284 Q 926 286 923 285 L 919 292 L 909 301 L 902 304 Q 896 305 895 301 L 895 295 L 897 288 L 907 268 L 944 204 L 949 193 L 952 190 L 957 179 L 960 176 L 974 149 L 977 146 Q 978 139 982 137 L 982 133 L 977 134 Q 967 136 962 133 Z M 482 174 L 476 176 L 467 187 Q 466 193 468 197 L 473 200 Q 480 201 484 198 Q 489 194 492 187 L 491 178 Q 489 173 482 174 Z " /><path fill="rgb(0,0,0)" stroke="rgb(0,0,0)" stroke-width="1" opacity="0" d="M 551.5 217 L 559 220.5 Q 561.2 225.3 560 233.5 L 557 243.5 L 551 255.5 L 531.5 282 L 529 283.5 L 518.5 295 L 516 296.5 Q 516.8 298.8 514.5 298 Q 509.1 303.6 498.5 304 L 492 299.5 L 492 293.5 L 495 284.5 L 504 268.5 L 530 233.5 L 541.5 222 L 551.5 217 Z " /><path fill="rgb(0,0,0)" stroke="rgb(0,0,0)" stroke-width="1" opacity="0" d="M 641.5 217 Q 650.2 215.8 653 220.5 L 655 224.5 L 655 238 L 649.5 237 L 645.5 238 L 641 241.5 Q 631.1 249.5 631 267.5 L 635 276.5 L 623.5 291 L 610.5 301 Q 604.8 304.3 594.5 303 L 591 300.5 L 589 297.5 L 589 284.5 L 591 281.5 L 593 272.5 L 605 250.5 L 612 240.5 L 625.5 226 L 628 224.5 Q 627.3 222.3 629.5 223 L 641.5 217 Z " /><path fill="rgb(0,0,0)" stroke="rgb(0,0,0)" stroke-width="1" opacity="0" d="M 841.5 217 Q 847.1 216.9 849 220.5 L 850 225.5 L 843 243.5 L 817 282 L 814 283.5 Q 808.7 293.7 799.5 300 L 791.5 304 L 788.5 304 L 782 299.5 L 781 290.5 Q 783.3 289.2 782 284.5 L 784 282.5 L 784 279.5 L 790 266.5 Q 803.8 244.3 822.5 227 Q 829.7 219.7 841.5 217 Z " /><path fill="rgb(0,0,0)" stroke="rgb(0,0,0)" stroke-width="1" opacity="0" d="M 577.5 381 Q 588.3 380.3 592 386.5 L 590.5 390 Q 586.5 390.5 586 387.5 Q 586.8 385.3 584.5 386 Q 582.8 383.3 576.5 385 L 573 387.5 Q 569.2 392.2 571 402.5 L 575 409 L 581.5 410 L 585 409 L 588.5 403 L 593 404 Q 592.6 408.7 588.5 411 Q 584.5 414.5 575.5 413 L 569 408.5 Q 564.8 403.7 566 393.5 L 569 385 L 577.5 381 Z " /><path fill="rgb(0,0,0)" stroke="rgb(0,0,0)" stroke-width="1" opacity="0" d="M 611.5 381 Q 623 380 627 386.5 L 629 389.5 L 630 400.5 Q 628.6 408.6 622.5 412 Q 617.7 414.2 609.5 413 Q 603.4 411.6 601 406.5 L 599 395.5 L 602 386.5 L 605.5 383 L 611.5 381 Z M 611 385 L 608 386 L 604 395 L 605 404 L 608 408 L 613 410 L 620 409 L 625 402 Q 626 392 622 388 Q 619 383 611 385 Z " /><path fill="rgb(0,0,0)" stroke="rgb(0,0,0)" stroke-width="1" opacity="0" d="M 766.5 381 Q 776.6 379.9 780 385.5 L 781 388.5 L 777.5 390 L 772.5 385 L 765.5 385 L 762 387.5 Q 758.2 392.2 760 402.5 L 764.5 409 L 770.5 410 L 776 405.5 L 777.5 403 L 782 404.5 L 777.5 411 Q 773.5 414.5 764.5 413 L 756 406.5 Q 753.5 401 755 391.5 L 758.5 385 L 766.5 381 Z " /><path fill="rgb(0,0,0)" stroke="rgb(0,0,0)" stroke-width="1" opacity="0" d="M 833.5 381 Q 844.3 380.3 848 386.5 L 849 388.5 L 844.5 390 L 841.5 386 L 832.5 385 L 830 386 Q 825.5 390.8 827 402.5 L 831.5 409 L 838.5 410 L 842 407.5 L 844 403 L 849 404 Q 848.4 409.4 843.5 412 L 831.5 413 L 824 407.5 Q 820.6 402.4 822 392.5 Q 823.5 386 828.5 383 L 833.5 381 Z " /><path fill="rgb(0,0,0)" stroke="rgb(0,0,0)" stroke-width="1" opacity="0" d="M 880.5 381 Q 892 380 896 386.5 L 899 394.5 L 899 400.5 L 895 410 Q 890.6 414.4 879.5 413 Q 873 411.5 870 406.5 L 868 396.5 Q 870.2 395.2 869 390.5 L 874.5 383 L 880.5 381 Z M 880 385 L 878 386 L 873 394 L 873 401 L 876 407 L 882 410 L 889 409 L 894 401 Q 895 391 891 388 Q 888 383 880 385 Z " /><path fill="rgb(0,0,0)" stroke="rgb(0,0,0)" stroke-width="1" opacity="0" d="M 978.5 381 L 984.5 381 L 992 384 L 993 389 Q 988.4 390.3 987 387.5 L 985.5 385 L 980.5 384 L 975 386.5 Q 974 392 977.5 393 L 987.5 395 L 993 398.5 L 994 407.5 L 991.5 411 Q 986.8 414.8 976.5 413 L 971 409.5 L 969 404 Q 973.6 402.8 975 405.5 L 978.5 410 Q 986.8 411.3 989 406.5 Q 990 401 986.5 400 Q 976.3 399.3 971 393.5 L 970 387.5 L 974.5 382 L 978.5 381 Z " /><path fill="rgb(0,0,0)" stroke="rgb(0,0,0)" stroke-width="1" opacity="0" d="M 446 382 L 469.5 382 L 470 385 L 461.5 385 L 460 386.5 L 460 412.5 L 455 413 L 455 391.5 L 456 386.5 L 454.5 385 L 446 385 L 446 382 Z " /><path fill="rgb(0,0,0)" stroke="rgb(0,0,0)" stroke-width="1" opacity="0" d="M 477 382 L 499.5 382 L 500 385 L 482.5 385 L 481 386.5 Q 480.3 392.6 482 395 L 488.5 394 Q 490 396.5 495.5 395 L 497.5 394 L 499 398 L 483.5 398 L 482 399.5 Q 483.5 405 481 406.5 L 482 409 L 499.5 409 L 500 413 L 477 413 L 477 382 Z " /><path fill="rgb(0,0,0)" stroke="rgb(0,0,0)" stroke-width="1" opacity="0" d="M 508 382 Q 514 379.8 512 386.5 L 513 387.5 L 513 403.5 L 512 407.5 L 513.5 409 L 529 409 L 528.5 413 L 508 413 L 508 382 Z " /><path fill="rgb(0,0,0)" stroke="rgb(0,0,0)" stroke-width="1" opacity="0" d="M 536 382 L 558.5 382 L 559 385 L 541 385 L 541 393.5 L 542.5 395 L 555.5 395 Q 556.8 392.8 558 395.5 L 557.5 398 L 542.5 398 L 541 399.5 L 541 409 L 558.5 409 L 560 410.5 L 558.5 413 L 536 413 L 536 382 Z " /><path fill="rgb(0,0,0)" stroke="rgb(0,0,0)" stroke-width="1" opacity="0" d="M 637 382 L 644.5 382 L 646 383.5 L 647 390.5 L 650 397.5 L 650 401.5 L 651.5 403 L 654 401.5 Q 654.6 389.6 659.5 382 L 666.5 382 L 667 382.5 L 667 413 L 663 412.5 L 663 389.5 L 660 388 Q 659.3 402.5 653.5 413 Q 647.6 415.1 649 410.5 L 647 406.5 L 645 392.5 L 642.5 388 L 641 389.5 L 641 413 L 637 412.5 L 637 382 Z " /><path fill="rgb(0,0,0)" stroke="rgb(0,0,0)" stroke-width="1" opacity="0" d="M 676 382 L 680 382.5 L 680 403.5 L 683.5 409 L 690.5 410 L 695 406.5 L 696 402.5 L 696 382 L 701 382.5 L 701 402.5 L 700 407.5 L 697.5 411 Q 692.4 414.4 682.5 413 L 677 408.5 L 676 406.5 L 676 382 Z " /><path fill="rgb(0,0,0)" stroke="rgb(0,0,0)" stroke-width="1" opacity="0" d="M 709 382 Q 715.3 380.5 717 384.5 L 727.5 403 L 730 402.5 L 730 382.5 L 734 382 L 734 412.5 L 732.5 413 L 727 410.5 L 715.5 391 L 713 392.5 L 714 411.5 Q 712.8 414 709 413 L 709 382 Z " /><path fill="rgb(0,0,0)" stroke="rgb(0,0,0)" stroke-width="1" opacity="0" d="M 743 382 L 748 382.5 L 748 403.5 L 747 404.5 L 747 413 L 743 412.5 L 743 382 Z " /><path fill="rgb(0,0,0)" stroke="rgb(0,0,0)" stroke-width="1" opacity="0" d="M 798 382 L 804.5 382 L 805 383.5 L 817 413 Q 812.4 414.3 811 411.5 L 808.5 405 L 794.5 405 L 794 406.5 L 792 413 L 787 413 L 787 411.5 L 798 382 Z M 800 388 L 800 392 L 796 401 L 798 402 L 807 402 L 803 390 Q 804 386 800 388 Z " /><path fill="rgb(0,0,0)" stroke="rgb(0,0,0)" stroke-width="1" opacity="0" d="M 857 382 L 861 382.5 L 861 413 Q 857.2 414 856 411.5 L 857 409.5 L 857 382 Z " /><path fill="rgb(0,0,0)" stroke="rgb(0,0,0)" stroke-width="1" opacity="0" d="M 906 382 L 911.5 382 L 912 383.5 L 924.5 403 L 927 401.5 L 926 394.5 Q 928.5 393 927 387.5 L 926 382 L 931 382.5 L 931 411.5 Q 930 414 925.5 413 L 912.5 392 L 910 392.5 L 910 412.5 L 906 413 L 906 382 Z " /><path fill="rgb(0,0,0)" stroke="rgb(0,0,0)" stroke-width="1" opacity="0" d="M 940 382 L 961.5 382 L 962 385 L 944 385 L 944 393.5 L 945.5 395 L 958.5 395 L 961 394 L 960.5 398 L 945.5 398 L 944 399.5 L 944 409 L 962.5 409 L 963 413 L 940 413 L 940 382 Z " /><path fill="rgb(0,0,0)" stroke="rgb(0,0,0)" stroke-width="1" opacity="0" d="M 1020.5 410 L 1021 457 L 976 456.5 Q 995.8 451.3 1007 437.5 Q 1014.5 429 1019 417.5 L 1020.5 410 Z " /><path fill="rgb(211,150,74)" stroke="rgb(211,150,74)" stroke-width="1" opacity="0.3686274509803922" d="M 134.5 0 L 144 0.5 L 120.5 5 L 87.5 18 Q 57.3 33.3 36 57.5 Q 19.7 76.2 10 101.5 Q 2.2 121.2 0.5 147 L 0 138.5 L 1 137.5 L 1 129.5 L 3 119.5 L 5 116.5 L 6 109.5 L 11 95.5 L 20 77.5 L 36.5 55 L 41 51.5 L 45.5 46 Q 62.6 29.6 84.5 18 L 101.5 10 L 134.5 0 Z " /><path fill="rgb(211,150,74)" stroke="rgb(211,150,74)" stroke-width="1" opacity="0.3686274509803922" d="M 169.5 0 L 177.5 0 L 189.5 3 L 215.5 14 Q 236.2 25.8 252 42.5 L 255.5 47 L 258 48.5 Q 276.1 69.4 290 94.5 L 303 121.5 L 313 149.5 L 312 149.5 Q 290 79.5 242.5 35 Q 226.1 19.9 204.5 10 L 187.5 4 L 174.5 1 L 169.5 1 L 169.5 0 Z " /><path fill="rgb(211,150,74)" stroke="rgb(211,150,74)" stroke-width="1" opacity="0.3686274509803922" d="M 135.5 22 L 144 22.5 L 127.5 25 L 111.5 31 Q 95.9 39.3 85 52.5 L 81 59 Q 78.3 57.9 79 60.5 L 69 77.5 L 60 104.5 L 58 121.5 L 57 122.5 L 57 158.5 L 58 159.5 L 58 166.5 L 59 167.5 L 59 174.5 L 62 191.5 L 70 219.5 L 84 251.5 L 104.5 282 Q 106.8 281.3 106 283.5 L 113.5 292 Q 116.1 291.3 115 294 L 117 294 L 117 295.5 Q 133.9 312.6 155.5 325 L 177.5 336 L 196.5 343 L 220.5 349 L 237.5 351 L 243.5 353 L 270.5 354 L 271.5 355 L 289.5 355 L 290.5 354 L 316.5 353 L 360.5 344 L 389.5 334 Q 396.3 328.3 406.5 326 L 424.5 316 L 434 308.5 L 425 302.5 L 420 292.5 L 420 283.5 L 430 259.5 L 453 217.5 L 456.5 214 L 466.5 215 L 467.5 214 L 476.5 214 L 478 217.5 L 439 283.5 L 437 287.5 L 435 298.5 L 437.5 303 L 440.5 304 L 447.5 300 L 465.5 283 L 467 283 L 467 281.5 L 484 263.5 L 492 251.5 L 560.5 135 L 581.5 135 L 582 137.5 L 538 209.5 L 530 225 Q 532.7 226.1 532 223.5 L 544.5 213 L 556.5 212 L 560.5 213 L 571 222.5 L 575 232.5 L 575 249.5 Q 568.1 273.1 550.5 286 Q 538.2 297.7 521.5 305 L 510.5 309 L 495.5 309 L 487 303.5 L 484.5 300 L 478 305.5 L 473.5 312 L 471 313.5 L 455.5 330 Q 434.4 349.4 408.5 364 L 392.5 372 L 363.5 383 L 340.5 388 L 336.5 390 L 319.5 392 L 318.5 393 L 311.5 393 L 310.5 394 L 301.5 394 L 300.5 395 L 255.5 395 L 254.5 394 L 244.5 394 L 243.5 393 L 235.5 393 L 228.5 391 L 216.5 390 L 213.5 388 L 191.5 384 L 166.5 376 L 125.5 358 L 103.5 345 L 89 334.5 Q 89.8 332.3 87.5 333 L 58 305.5 L 33 272.5 L 18 244.5 L 8 217.5 L 5 202.5 L 3 198.5 L 1 180.5 L 0 179.5 L 0 170.5 L 1 170.5 L 4 197.5 Q 9.6 222.4 19 243.5 Q 38.8 286.2 70.5 317 Q 110.3 354.7 167.5 375 L 189.5 382 L 224.5 390 L 246.5 392 L 247.5 393 L 257.5 393 L 258.5 394 L 296.5 394 L 297.5 393 L 316.5 392 L 351.5 385 L 368.5 380 L 395.5 369 Q 442.6 346.1 475 308.5 L 483.5 298 L 487 300.5 L 489.5 304 Q 494.8 309.7 507.5 308 L 518.5 305 L 535.5 296 Q 551.1 285.6 563 271.5 L 573 251.5 Q 575.3 244.8 574 234.5 Q 571.8 221.8 562.5 216 Q 558.2 212.8 550.5 213 L 540.5 217 L 527 230.5 L 520.5 239 L 521 237.5 L 581 136 L 561.5 136 L 560 137.5 L 492 253.5 Q 477.7 276.2 457.5 293 L 443.5 304 L 438.5 305 L 435 302.5 L 434 294.5 L 442 275.5 L 473 223.5 L 476 215 Q 470.4 216.9 460.5 216 L 457.5 215 L 454 218.5 L 428 265.5 L 422 280.5 L 421 290.5 Q 423.1 299.9 429.5 305 L 436 308.5 Q 418.7 322.7 396.5 332 L 379.5 339 L 350.5 348 L 317.5 354 L 295.5 355 L 294.5 356 L 265.5 356 L 264.5 355 L 242.5 354 L 241.5 353 L 218.5 350 Q 194.7 344.8 174.5 336 Q 138.8 320.7 114 294.5 Q 85.2 265.3 70 222.5 L 61 191.5 L 57 168.5 Q 58.7 162.3 56 160.5 L 56 121.5 L 57 120.5 L 58 108.5 L 66 81.5 Q 76.2 57.2 94.5 41 L 117.5 27 L 135.5 22 Z " /><path fill="rgb(211,150,74)" stroke="rgb(211,150,74)" stroke-width="1" opacity="0.3686274509803922" d="M 148.5 22 L 157.5 22 L 171.5 25 L 191.5 34 Q 212.7 46.8 228 65.5 Q 265.1 111.4 282 177.5 L 281 177.5 L 273 150.5 L 256 110.5 L 241 84.5 Q 228.3 66.2 212.5 51 Q 199.2 38.3 181.5 30 L 161.5 24 L 148.5 23 L 148.5 22 Z " /><path fill="rgb(211,150,74)" stroke="rgb(211,150,74)" stroke-width="1" opacity="0.3686274509803922" d="M 476.5 57 L 543.5 58 L 544.5 59 L 562 59 Q 563.5 62.7 560.5 62 L 549.5 65 L 543.5 65 L 519.5 70 Q 513 71.5 510 76.5 L 490.5 101 Q 488.3 100.3 489 102.5 L 466 131 Q 463.3 129.9 464 132.5 L 418 186.5 L 416 191 L 413 192.5 L 399 211 Q 396.3 209.9 397 212.5 L 374 241 Q 371.3 239.9 372 242.5 L 331.5 291 Q 329.3 290.3 330 292.5 L 310 315.5 L 308 320 L 304.5 321 L 303 319.5 L 303 308.5 L 302 307.5 L 302 296.5 L 301 295.5 L 301 285.5 L 300 284.5 L 298 259.5 L 299 259.5 L 300 275.5 L 302 284.5 L 302 294.5 L 303 295.5 L 303 304.5 L 304 305.5 L 304 319 Q 307.7 320.5 307 317.5 L 513.5 71 L 517.5 69 L 542.5 64 L 547.5 64 L 560 60.5 L 527.5 60 L 526.5 59 L 479.5 59 L 478.5 58 L 474 60.5 L 354 226 L 348.5 227 L 333.5 227 L 330 226 L 330.5 221 L 332.5 225 L 352.5 225 L 354 223.5 L 432 117.5 L 438 107 Q 440.7 108.1 440 105.5 L 467 69.5 L 474 58 L 476.5 57 Z " /><path fill="rgb(211,150,74)" stroke="rgb(211,150,74)" stroke-width="1" opacity="0.3686274509803922" d="M 961.5 133 Q 967 135.5 976.5 134 L 982 133 L 982 136.5 Q 977.8 139.3 977 145.5 L 974 148.5 L 960 175.5 L 957 178.5 L 952 189.5 L 949 192.5 L 944 203.5 L 907 267.5 L 897 287.5 L 895 294.5 L 895 300.5 Q 895.8 304.8 901.5 304 L 908.5 301 L 919 291.5 L 923 285 Q 925.7 286.1 925 283.5 Q 930.3 280 932 274 Q 934.7 275.1 934 272.5 L 950.5 250 Q 955.1 248.7 953 254.5 L 936 278.5 L 919 299 L 906.5 308 Q 901.8 310.3 893.5 309 L 885 302.5 L 881 295.5 L 880.5 278 L 875.5 285 Q 873.3 284.3 874 286.5 L 858.5 303 L 848.5 309 L 838.5 309 L 829 302.5 Q 823.3 295.2 825 280.5 L 826 280.5 Q 823.8 297.7 832.5 304 Q 836.5 309 846.5 308 Q 857.8 303.8 865 295.5 L 883.5 273 L 884 274.5 Q 880 281 882 293.5 Q 884.1 301.8 890.5 306 Q 894.5 309 902.5 308 Q 914.3 302.8 922 293.5 L 942 268.5 L 951 255.5 L 952 251.5 L 948 254.5 Q 932.3 280.8 910.5 301 L 902.5 305 L 897.5 305 Q 892 303 894 293.5 L 904 270.5 L 981 134 Q 975.1 136.4 963.5 135 L 961.5 135 Q 959.3 134.3 960 136.5 L 900 244.5 Q 882.8 272.8 860.5 296 Q 854.8 303.8 842.5 305 L 840 304 L 838 295.5 L 849 269.5 L 880 215 L 864.5 216 L 860.5 215 L 854.5 225 L 853 219.5 L 849.5 215 Q 846.2 212.3 839.5 213 Q 802.1 222.6 780 247.5 Q 772.5 260.5 761.5 270 Q 756.5 276 745.5 276 L 738 270.5 Q 735.4 264.6 737 254.5 L 738 250.5 L 742.5 246 Q 760 237.5 772 223.5 L 774 217.5 L 771.5 214 L 763.5 214 L 752 222.5 L 750 225.5 Q 741 234 737 247.5 L 730.5 254 L 727 256.5 L 724.5 260 L 725 258.5 L 733 237.5 L 733 224.5 Q 731.5 218 726.5 215 L 719.5 213 Q 709.6 216.1 704 223.5 Q 690.6 238.1 680 255.5 L 668.5 268 L 654.5 276 L 647.5 277 L 642 276 L 643 271.5 Q 651.1 261.6 656 248.5 L 660 230.5 L 658 220.5 L 653.5 215 Q 648.9 212.1 640.5 213 Q 607.1 223.1 587 246.5 L 576 264.5 L 574 271.5 L 573.5 286 L 572 276.5 Q 574.4 262.6 580 253 Q 582.7 254.1 582 251.5 L 592.5 239 L 604.5 229 L 624.5 217 L 633.5 213 L 649.5 212 L 658 217.5 L 661 226.5 L 661 235.5 Q 655.2 258.2 643 274.5 L 653.5 275 Q 666.9 269.9 675 259.5 L 688 242.5 L 689 239 Q 691.7 240.1 691 237.5 L 697.5 229 L 701 226.5 L 706.5 219 L 714.5 213 L 723.5 212 Q 729.6 213.4 732 218.5 L 734 222.5 L 735 231.5 Q 732.3 233.2 734 239.5 L 729 252.5 L 736 246.5 Q 742.9 227.4 757.5 216 L 765.5 212 L 770.5 212 L 775 215.5 Q 774 226.5 766.5 231 Q 755.1 242.2 740 249 Q 736.4 255 738 267.5 L 740.5 272 Q 743.4 275.6 751.5 274 L 758.5 271 L 770 259.5 L 773 254 Q 775.7 255.1 775 252.5 L 781.5 244 L 784 242.5 L 787.5 238 Q 802.6 225.6 821.5 217 Q 828 216.5 831.5 213 L 846.5 212 L 853 216.5 L 854.5 222 L 859.5 214 L 877.5 214 L 879.5 213 Q 881.8 213.8 881 217.5 L 848 273.5 L 840 292.5 L 839 298.5 L 841.5 303 L 845.5 304 L 852.5 301 L 864 290.5 L 865.5 288 Q 867.8 288.8 867 286.5 L 883 267.5 L 900 242.5 L 905 231.5 L 945 162.5 L 957 138.5 L 961.5 133 Z " /><path fill="rgb(211,150,74)" stroke="rgb(211,150,74)" stroke-width="1" opacity="0.3686274509803922" d="M 313.5 151 L 316 155.5 L 326 192.5 L 329 213.5 L 328 213.5 L 328 208.5 L 326 203.5 L 324 189.5 L 313.5 151 Z " /><path fill="rgb(211,150,74)" stroke="rgb(211,150,74)" stroke-width="1" opacity="0.3686274509803922" d="M 481.5 174 Q 488.7 173.3 491 177.5 L 492 186.5 Q 489.4 193.9 483.5 198 Q 480.2 201.2 472.5 200 L 468 196.5 Q 465.7 193.3 467 186.5 L 475.5 176 L 481.5 174 Z M 479 176 L 477 177 L 468 188 L 469 196 L 475 199 Q 482 199 486 195 L 491 186 L 490 179 L 488 176 L 479 176 Z " /><path fill="rgb(211,150,74)" stroke="rgb(211,150,74)" stroke-width="1" opacity="0.3686274509803922" d="M 282.5 179 L 290 210.5 L 289 210.5 L 282 181.5 L 282.5 179 Z " /><path fill="rgb(211,150,74)" stroke="rgb(211,150,74)" stroke-width="1" opacity="0.3686274509803922" d="M 290.5 212 L 294 226.5 L 298 256.5 L 297 256.5 L 293 227.5 L 290 216.5 L 290.5 212 Z " /><path fill="rgb(211,150,74)" stroke="rgb(211,150,74)" stroke-width="1" opacity="0.3686274509803922" d="M 329.5 215 L 330 219.5 L 329 219.5 L 329.5 215 Z " /><path fill="rgb(211,150,74)" stroke="rgb(211,150,74)" stroke-width="1" opacity="0.3686274509803922" d="M 549.5 216 Q 558.1 214.9 560 220.5 L 561 222.5 L 561 234.5 Q 547 272 519.5 296 L 509.5 303 Q 504.9 305.9 496.5 305 L 491 300.5 L 491 292.5 L 499 274.5 Q 516.3 245.3 539.5 222 L 549.5 216 Z M 552 217 L 542 222 L 530 234 L 504 269 L 495 285 L 492 294 L 492 300 L 499 304 Q 509 304 515 298 Q 517 299 516 297 L 519 295 L 529 284 L 532 282 L 551 256 L 557 244 L 560 234 Q 561 225 559 221 L 552 217 Z " /><path fill="rgb(211,150,74)" stroke="rgb(211,150,74)" stroke-width="1" opacity="0.3686274509803922" d="M 639.5 216 Q 650.7 213.8 654 219.5 L 656 223.5 L 657 232.5 Q 654.8 233.7 656 238.5 L 654.5 240 L 647.5 239 L 640 244.5 L 633 256.5 L 632 265.5 L 637 275.5 Q 629.4 288.9 617.5 298 Q 610.5 305 596.5 305 L 590 301.5 Q 586 296.5 588 285.5 L 589 285.5 L 589 297.5 L 592.5 302 Q 596.3 304.7 604.5 303 L 615.5 298 L 627 287.5 L 634 278.5 L 635 274.5 L 631 267.5 L 631 259.5 Q 634.1 247.1 642.5 240 Q 645.7 236.7 652.5 237 L 655 238 L 655 224.5 L 651.5 219 Q 648.5 216 641.5 217 L 628 223 L 626.5 226 L 618 233.5 L 599 260.5 Q 592.6 270.6 589.5 284 L 589 281.5 L 593 269.5 L 601 254.5 Q 611.6 237.6 625.5 224 L 639.5 216 Z " /><path fill="rgb(211,150,74)" stroke="rgb(211,150,74)" stroke-width="1" opacity="0.3686274509803922" d="M 716.5 216 Q 721.3 215.3 722 218.5 L 722 223.5 L 716.5 236 L 716 234.5 L 721 220.5 L 718.5 217 L 713.5 219 L 701 231.5 L 687 252.5 L 674.5 267 L 659.5 278 L 654.5 280 L 643.5 280 L 639.5 279 Q 632 291 621.5 300 L 616.5 304 L 605.5 309 L 592.5 309 Q 584.1 305.9 579 299.5 Q 574.8 295.2 574 287.5 L 575 287.5 Q 577.6 298.4 585.5 304 L 594.5 308 L 603.5 308 L 615.5 303 L 632 287.5 L 638.5 278 L 652.5 279 L 665.5 273 L 680 259.5 L 701 229.5 L 712.5 218 L 716.5 216 Z " /><path fill="rgb(211,150,74)" stroke="rgb(211,150,74)" stroke-width="1" opacity="0.3686274509803922" d="M 839.5 216 Q 847.8 214.7 850 219.5 L 849.5 222 L 846.5 218 L 841.5 217 L 827.5 223 L 811 238.5 L 790 266.5 L 782.5 284 L 782 281.5 Q 795.7 249.7 819.5 228 Q 827 219.5 839.5 216 Z " /><path fill="rgb(211,150,74)" stroke="rgb(211,150,74)" stroke-width="1" opacity="0.3686274509803922" d="M 849.5 226 L 850 229.5 Q 844.2 245.7 835 258.5 Q 820.4 281.4 801.5 300 L 795.5 304 L 786.5 305 L 781 300.5 L 780 290.5 L 781.5 285 L 782 289.5 Q 779.5 291 781 296.5 L 785.5 303 L 791.5 304 Q 804.2 299.2 811 288.5 L 815.5 282 Q 817.8 282.8 817 280.5 L 826 269.5 L 843 243.5 L 849.5 226 Z " /><path fill="rgb(211,150,74)" stroke="rgb(211,150,74)" stroke-width="1" opacity="0.3686274509803922" d="M 715.5 237 L 716 238.5 L 678 303.5 L 678 306 L 697.5 306 L 699 304.5 Q 710.7 278.2 728.5 258 L 732 255.5 Q 731.3 253.3 733.5 254 L 735 253.5 L 734 255.5 L 734 268.5 L 738.5 276 Q 742.8 279.7 752.5 278 Q 761.6 274.6 767.5 268 L 768 274.5 L 767 275.5 L 766.5 284 L 766 275.5 L 767 270.5 L 761.5 275 Q 755.4 279.4 745.5 280 L 736 276 L 733 268.5 L 732.5 256 L 714 278.5 L 700 306 Q 697 305 698 308 L 693.5 308 L 692.5 307 L 680.5 307 L 677 308 L 676 304.5 L 683 294.5 L 688 283.5 L 691 280.5 L 715.5 237 Z " /><path fill="rgb(211,150,74)" stroke="rgb(211,150,74)" stroke-width="1" opacity="0.3686274509803922" d="M 519.5 240 L 518.5 242 L 519.5 240 Z " /><path fill="rgb(211,150,74)" stroke="rgb(211,150,74)" stroke-width="1" opacity="0.3686274509803922" d="M 826.5 275 L 827 279 Q 823.2 277.5 824 280.5 L 803.5 304 L 794.5 309 L 783.5 309 Q 775.4 306.1 771 299.5 Q 767 294.5 767 285.5 L 768 285.5 Q 769.3 299.2 778.5 305 Q 783.3 309.2 793.5 308 Q 806.4 302.4 814 291.5 L 826.5 275 Z " /><path fill="rgb(211,150,74)" stroke="rgb(211,150,74)" stroke-width="1" opacity="0.3686274509803922" d="M 483.5 336 L 965 336.5 L 483.5 337 L 472.5 339 L 462.5 343 L 463.5 341 L 483.5 336 Z " /><path fill="rgb(211,150,74)" stroke="rgb(211,150,74)" stroke-width="1" opacity="0.3686274509803922" d="M 966.5 337 Q 978.2 336.8 985.5 341 Q 1000.4 348.1 1010 360.5 L 1015 369.5 L 1014 369.5 Q 1008.8 358.2 999.5 351 L 982.5 341 L 972.5 338 L 966.5 338 L 966.5 337 Z " /><path fill="rgb(211,150,74)" stroke="rgb(211,150,74)" stroke-width="1" opacity="0.3686274509803922" d="M 458.5 344 L 457.5 346 Q 446.9 350.9 440.5 360 L 451.5 348 L 458.5 344 Z " /><path fill="rgb(211,150,74)" stroke="rgb(211,150,74)" stroke-width="1" opacity="0.3686274509803922" d="M 439.5 361 L 438 363.5 L 432.5 374 L 432 372.5 Q 434.2 365.2 439.5 361 Z " /><path fill="rgb(211,150,74)" stroke="rgb(211,150,74)" stroke-width="1" opacity="0.3686274509803922" d="M 1016.5 373 Q 1021.6 379.9 1021 392.5 L 1020 392.5 L 1019 380.5 L 1016.5 373 Z " /><path fill="rgb(211,150,74)" stroke="rgb(211,150,74)" stroke-width="1" opacity="0.3686274509803922" d="M 430.5 377 L 431 378.5 L 428.5 388 L 428 383.5 L 430.5 377 Z " /><path fill="rgb(211,150,74)" stroke="rgb(211,150,74)" stroke-width="1" opacity="0.3686274509803922" d="M 576.5 380 L 584.5 380 L 593 386.5 L 594 389.5 L 587 391 L 583.5 386 Q 575.2 384.7 573 389.5 Q 570.7 394.2 572 402.5 L 576.5 408 L 581.5 409 L 586.5 405 L 585 407.5 Q 585.8 410.1 582.5 409 L 577.5 410 L 575 409 L 571 402.5 L 571 391.5 L 574.5 386 L 583.5 385 L 586 386 L 588.5 390 L 592 388.5 Q 592.5 383.5 588.5 383 Q 584.9 380.1 577.5 381 L 569 385 L 566 393.5 L 566 401.5 Q 566.9 408.1 571.5 411 Q 575.5 414.5 584.5 413 L 592 407.5 L 593 404 L 591 403.5 L 592.5 403 L 594 405.5 L 591 411 L 585.5 414 L 575.5 414 Q 569.4 412.6 567 407.5 Q 563.9 402.1 565 392.5 L 570.5 383 L 576.5 380 Z " /><path fill="rgb(211,150,74)" stroke="rgb(211,150,74)" stroke-width="1" opacity="0.3686274509803922" d="M 610.5 380 Q 624.7 378.8 629 387.5 L 631 394.5 L 631 400.5 Q 629.8 408.3 624.5 412 Q 619.8 415.8 609.5 414 L 602 409.5 Q 598 404.5 598 395.5 L 601 386.5 L 605.5 382 L 610.5 380 Z M 612 381 L 606 383 L 602 387 L 599 396 L 601 407 Q 603 412 610 413 Q 618 414 623 412 Q 629 409 630 401 L 629 390 L 627 387 Q 623 380 612 381 Z " /><path fill="rgb(211,150,74)" stroke="rgb(211,150,74)" stroke-width="1" opacity="0.3686274509803922" d="M 765.5 380 Q 777 379 781 385.5 L 782 390 L 776.5 391 L 773.5 387 L 766.5 386 L 762 389.5 L 761 391.5 L 761 402.5 L 763 407 L 770.5 409 L 775 405.5 L 776 402 L 783 404.5 Q 781.6 410.6 776.5 413 L 768.5 415 L 761.5 413 L 756 407.5 L 760.5 411 Q 764.5 414.5 773.5 413 L 780 408.5 L 782 404.5 L 777.5 403 L 772.5 409 L 766.5 410 L 761 405.5 Q 758.6 400.4 760 391.5 L 763.5 386 L 772.5 385 L 777.5 390 L 779.5 390 L 781 387.5 L 777.5 383 Q 773.9 380.1 766.5 381 L 757.5 386 L 760.5 382 L 765.5 380 Z " /><path fill="rgb(211,150,74)" stroke="rgb(211,150,74)" stroke-width="1" opacity="0.3686274509803922" d="M 832.5 380 L 840.5 380 L 848 384.5 L 850 390 L 843 391 L 839.5 386 Q 832.3 384.8 830 388.5 Q 826.3 392.8 828 402.5 L 832.5 408 L 837.5 409 L 843 404.5 Q 841.8 400.8 845.5 402 L 850 403 Q 849.6 408.8 845.5 412 Q 841.2 415.7 831.5 414 L 823 407.5 L 822 403.5 L 823 403.5 L 825.5 409 Q 829.2 414.8 840.5 413 L 848 407.5 L 849 404 L 844 403 L 840.5 409 L 834.5 410 L 829 406.5 Q 825.3 402.2 827 392.5 L 830 386 Q 832.7 384.1 839.5 385 L 843 387.5 L 844.5 390 L 849 388.5 L 844.5 383 Q 840.9 380.1 833.5 381 Q 827 382.5 824 387.5 L 822.5 392 L 822 389.5 L 825 384 L 832.5 380 Z " /><path fill="rgb(211,150,74)" stroke="rgb(211,150,74)" stroke-width="1" opacity="0.3686274509803922" d="M 879.5 380 Q 892.8 378.8 897 386.5 L 900 394.5 L 900 400.5 Q 898.8 408.3 893.5 412 Q 888.8 415.8 878.5 414 L 871 409.5 L 868 404.5 L 867 395.5 L 870 386.5 L 874.5 382 L 879.5 380 Z M 881 381 L 875 383 L 869 391 Q 870 395 868 397 L 870 407 Q 873 411 880 413 Q 891 414 895 410 L 899 401 L 899 395 L 896 387 Q 892 380 881 381 Z " /><path fill="rgb(211,150,74)" stroke="rgb(211,150,74)" stroke-width="1" opacity="0.3686274509803922" d="M 977.5 380 Q 987.9 378.6 992 383.5 L 990.5 384 L 988.5 382 L 978.5 381 L 974.5 382 L 971 385.5 L 970 391.5 L 973.5 396 L 980.5 399 L 984.5 399 L 989 402.5 Q 990 408 986.5 409 L 978.5 410 L 973.5 404 Q 968.1 402.1 969 405.5 L 972.5 411 Q 977.2 414.8 987.5 413 L 993 409.5 L 993.5 408 L 994 409.5 L 990.5 413 L 981.5 415 Q 980.2 412.8 975.5 414 L 970 409.5 L 968 403 L 974.5 403 L 975 404.5 L 977.5 408 L 984.5 409 L 988 406.5 Q 989 402 986.5 401 Q 975.4 400.1 970 393.5 L 969 387.5 L 972.5 382 L 977.5 380 Z " /><path fill="rgb(211,150,74)" stroke="rgb(211,150,74)" stroke-width="1" opacity="0.3686274509803922" d="M 445 381 L 470.5 381 L 471 386 L 462.5 386 L 461 387.5 L 461 413.5 Q 460.9 414.6 455.5 414 L 455.5 413 Q 460 413.5 460 412.5 L 460 386.5 L 461.5 385 L 470 385 L 469.5 382 L 446 382 L 446 385 L 454.5 385 Q 457 386 456 390.5 L 455 390.5 Q 455.8 386.8 453.5 386 L 445 386 L 445 381 Z " /><path fill="rgb(211,150,74)" stroke="rgb(211,150,74)" stroke-width="1" opacity="0.3686274509803922" d="M 476 381 L 500 381.5 L 477 382 L 477 413 L 500 413 L 499.5 409 L 482.5 409 L 482.5 408 L 500.5 408 L 501 408.5 L 501 414 L 476 414 L 476 381 Z " /><path fill="rgb(211,150,74)" stroke="rgb(211,150,74)" stroke-width="1" opacity="0.3686274509803922" d="M 507 381 L 513.5 381 L 514 381.5 L 514 404.5 L 513 406.5 L 514.5 408 L 530 408 L 530 413.5 L 529.5 414 L 507 414 L 507 381 Z M 508 382 L 508 413 L 529 413 L 529 409 L 514 409 L 512 408 L 513 404 L 513 388 L 512 387 Q 514 380 508 382 Z " /><path fill="rgb(211,150,74)" stroke="rgb(211,150,74)" stroke-width="1" opacity="0.3686274509803922" d="M 535 381 L 559.5 381 L 560 386 L 542 386 L 542 394 L 556 394.5 L 542.5 395 L 541 393.5 L 541 385 L 558.5 385 L 559 382 L 536 382 L 536 413 L 558.5 413 L 559.5 412 L 560 414 L 535 414 L 535 381 Z " /><path fill="rgb(211,150,74)" stroke="rgb(211,150,74)" stroke-width="1" opacity="0.3686274509803922" d="M 636 381 L 645.5 381 L 647 382.5 L 649 392.5 L 648 392.5 L 647 386.5 L 644.5 382 L 637.5 382 L 637 382.5 L 637 413 L 641 412.5 L 641 389.5 Q 642.5 386.5 644 389.5 L 646 400.5 L 645 400.5 L 644 392.5 L 642.5 390 L 642 414 L 636.5 414 L 636 413.5 L 636 381 Z " /><path fill="rgb(211,150,74)" stroke="rgb(211,150,74)" stroke-width="1" opacity="0.3686274509803922" d="M 658.5 381 L 667.5 381 L 668 381.5 L 668 414 L 662.5 414 L 662 413.5 L 662 390.5 L 661 390.5 L 659.5 397 L 659 392.5 L 660 388 L 663 389.5 L 663 412.5 L 667 413 L 667 382.5 L 666.5 382 L 659.5 382 L 656.5 389 L 656 386.5 L 658.5 381 Z " /><path fill="rgb(211,150,74)" stroke="rgb(211,150,74)" stroke-width="1" opacity="0.3686274509803922" d="M 675 381 L 680.5 381 L 681 381.5 L 681 402.5 L 684.5 408 L 689.5 409 L 694 406.5 L 695 402.5 L 695 381 L 701 381.5 L 696 382 L 696 402.5 L 695 406.5 L 692.5 409 L 685.5 410 L 682 407.5 L 680 403.5 L 680 382 L 676 382.5 L 676 406.5 L 680.5 412 Q 684.3 414.7 692.5 413 L 699 409.5 L 700.5 403 L 701 407.5 L 696.5 413 L 694.5 414 L 682.5 414 L 676 409.5 L 675 406.5 L 675 381 Z " /><path fill="rgb(211,150,74)" stroke="rgb(211,150,74)" stroke-width="1" opacity="0.3686274509803922" d="M 708 381 L 715.5 381 L 716 382.5 L 716.5 384 Q 714.8 380.5 709 382 L 709 412.5 L 712.5 413 L 714 411.5 L 714 399.5 Q 711.5 398 713 392.5 L 715.5 391 L 728.5 412 L 734 413 L 734 382.5 L 730 382 L 730 402.5 L 727.5 403 L 725 398.5 L 727 399.5 L 728.5 402 L 729 381 L 734.5 381 L 735 381.5 L 735 414 L 728.5 414 L 727 412.5 L 715.5 393 L 715 412.5 L 713.5 414 Q 709 415 708 412.5 L 708 381 Z " /><path fill="rgb(211,150,74)" stroke="rgb(211,150,74)" stroke-width="1" opacity="0.3686274509803922" d="M 742 381 L 748.5 381 L 749 381.5 L 749 412.5 Q 747.4 415.5 742 414 L 742 381 Z M 743 382 L 743 413 L 747 413 L 747 405 L 748 404 L 748 383 L 743 382 Z " /><path fill="rgb(211,150,74)" stroke="rgb(211,150,74)" stroke-width="1" opacity="0.3686274509803922" d="M 798.5 381 L 805.5 381 L 806 383.5 L 808 387.5 L 807 387.5 L 805 382 L 798.5 382 L 798 383.5 L 797 383.5 L 798.5 381 Z " /><path fill="rgb(211,150,74)" stroke="rgb(211,150,74)" stroke-width="1" opacity="0.3686274509803922" d="M 856 381 L 861.5 381 L 862 381.5 L 862 414 L 856.5 414 L 856 412.5 L 857.5 413 L 861 412.5 L 861 382 L 857 382.5 L 857 409.5 L 856 409.5 L 856 381 Z " /><path fill="rgb(211,150,74)" stroke="rgb(211,150,74)" stroke-width="1" opacity="0.3686274509803922" d="M 905 381 Q 911.1 379.3 913 382.5 L 924.5 402 L 926 398.5 L 925 397.5 L 925 381 L 931.5 381 L 932 381.5 L 932 412.5 Q 930.8 415.3 925.5 414 L 915 398.5 L 918 400.5 L 925.5 413 Q 930 414 931 411.5 L 931 382.5 L 926 382 L 927 393.5 L 926 395.5 Q 928.3 396.8 927 401.5 L 924.5 403 L 912 382 L 906.5 382 L 906 382.5 L 906 413 L 910 412.5 L 910 392.5 L 912.5 392 L 915 396.5 L 914 396.5 L 911.5 393 L 911 414 L 905.5 414 L 905 413.5 L 905 381 Z " /><path fill="rgb(211,150,74)" stroke="rgb(211,150,74)" stroke-width="1" opacity="0.3686274509803922" d="M 939 381 L 962.5 381 L 963 386 L 946.5 386 L 945 387.5 Q 943.8 392.8 946.5 394 L 959 394.5 L 945.5 395 L 944 393.5 L 944 385 L 961.5 385 L 962 382 L 940 382 L 940 413 L 962.5 413 L 963 409 L 944 409 L 944 399.5 L 945.5 398 L 961 398 L 961.5 394 L 962 399 L 946.5 399 L 945 400.5 L 945 408 L 963.5 408 L 964 408.5 L 964 414 L 939 414 L 939 381 Z " /><path fill="rgb(211,150,74)" stroke="rgb(211,150,74)" stroke-width="1" opacity="0.3686274509803922" d="M 980.5 384 L 987 386.5 L 988.5 389 Q 993.9 390.9 993 387.5 L 994 387.5 L 994 390 L 987 390 L 984.5 386 Q 977.7 384.3 976 387.5 Q 974.5 391.9 977.5 391 L 987.5 394 L 994 398.5 L 995 406.5 L 994 406.5 Q 995.3 399.3 991.5 397 L 977.5 393 L 975 390.5 Q 974 386 976.5 385 L 980.5 384 Z " /><path fill="rgb(211,150,74)" stroke="rgb(211,150,74)" stroke-width="1" opacity="0.3686274509803922" d="M 482.5 385 L 500 385.5 L 483.5 386 L 482 387.5 Q 480.8 392.8 483.5 394 L 487 394.5 L 482 395 Q 480.3 392.6 481 386.5 L 482.5 385 Z " /><path fill="rgb(211,150,74)" stroke="rgb(211,150,74)" stroke-width="1" opacity="0.3686274509803922" d="M 610.5 385 Q 619.2 383.3 622 387.5 Q 626.3 391.7 625 401.5 L 623 402.5 L 624 393.5 L 618.5 386 Q 609.5 384.5 607 389.5 Q 604.3 392.8 605 399.5 L 606 403.5 L 610.5 408 L 616.5 409 L 621.5 406 L 619.5 409 L 612.5 410 L 608 408 L 605 403.5 L 604 394.5 L 608 386 L 610.5 385 Z " /><path fill="rgb(211,150,74)" stroke="rgb(211,150,74)" stroke-width="1" opacity="0.3686274509803922" d="M 717.5 385 L 725 396.5 L 722 394.5 L 717.5 385 Z " /><path fill="rgb(211,150,74)" stroke="rgb(211,150,74)" stroke-width="1" opacity="0.3686274509803922" d="M 796.5 385 L 797 386.5 L 790.5 402 L 790 400.5 L 796.5 385 Z " /><path fill="rgb(211,150,74)" stroke="rgb(211,150,74)" stroke-width="1" opacity="0.3686274509803922" d="M 879.5 385 Q 888.2 383.3 891 387.5 Q 895.2 391.3 894 400.5 L 888.5 409 L 881.5 410 L 876 406.5 L 875 404.5 L 879.5 408 L 885.5 409 L 892 403.5 L 893 394.5 L 892 390.5 L 888.5 387 L 880.5 386 L 876 389.5 Q 873.3 392.8 874 399.5 L 875 402.5 L 874 402.5 L 873 393.5 L 877.5 386 L 879.5 385 Z " /><path fill="rgb(211,150,74)" stroke="rgb(211,150,74)" stroke-width="1" opacity="0.3686274509803922" d="M 756.5 387 L 756 388.5 L 754.5 403 L 754 391.5 L 756.5 387 Z " /><path fill="rgb(211,150,74)" stroke="rgb(211,150,74)" stroke-width="1" opacity="0.3686274509803922" d="M 800 388 Q 803.8 386.5 803 389.5 L 806 397.5 L 805 397.5 L 801.5 389 L 800.5 391 L 800 388 Z " /><path fill="rgb(211,150,74)" stroke="rgb(211,150,74)" stroke-width="1" opacity="0.3686274509803922" d="M 427.5 389 L 428 404.5 L 427 404.5 L 427.5 389 Z " /><path fill="rgb(211,150,74)" stroke="rgb(211,150,74)" stroke-width="1" opacity="0.3686274509803922" d="M 808.5 389 L 810 392.5 L 809 392.5 L 808.5 389 Z " /><path fill="rgb(211,150,74)" stroke="rgb(211,150,74)" stroke-width="1" opacity="0.3686274509803922" d="M 655.5 390 L 656 392.5 L 655 392.5 L 655.5 390 Z " /><path fill="rgb(211,150,74)" stroke="rgb(211,150,74)" stroke-width="1" opacity="0.3686274509803922" d="M 799.5 392 L 800 393.5 L 798 401 L 805.5 401 L 806 399.5 L 807 399.5 L 806.5 402 L 797.5 402 L 796 399.5 L 799.5 392 Z " /><path fill="rgb(211,150,74)" stroke="rgb(211,150,74)" stroke-width="1" opacity="0.3686274509803922" d="M 821.5 393 L 822 401.5 L 821 401.5 L 821.5 393 Z " /><path fill="rgb(211,150,74)" stroke="rgb(211,150,74)" stroke-width="1" opacity="0.3686274509803922" d="M 489.5 394 L 496 394.5 L 489.5 395 L 489.5 394 Z " /><path fill="rgb(211,150,74)" stroke="rgb(211,150,74)" stroke-width="1" opacity="0.3686274509803922" d="M 557.5 394 L 559 394 L 559 399 L 542 399 L 542 408 L 559.5 408 L 560 409.5 L 558.5 409 L 541 409 L 541 399.5 L 542.5 398 L 558 398 L 557.5 394 Z " /><path fill="rgb(211,150,74)" stroke="rgb(211,150,74)" stroke-width="1" opacity="0.3686274509803922" d="M 649.5 394 L 650 396.5 L 649 396.5 L 649.5 394 Z " /><path fill="rgb(211,150,74)" stroke="rgb(211,150,74)" stroke-width="1" opacity="0.3686274509803922" d="M 654.5 394 L 655 397.5 L 652.5 403 L 650 401.5 L 650.5 398 L 651.5 402 L 654.5 394 Z " /><path fill="rgb(211,150,74)" stroke="rgb(211,150,74)" stroke-width="1" opacity="0.3686274509803922" d="M 810.5 394 L 817 409.5 L 816 409.5 Q 811.2 402.7 810.5 394 Z " /><path fill="rgb(211,150,74)" stroke="rgb(211,150,74)" stroke-width="1" opacity="0.3686274509803922" d="M 483.5 398 L 499 398.5 L 483.5 399 L 482.5 400 L 483.5 398 Z " /><path fill="rgb(211,150,74)" stroke="rgb(211,150,74)" stroke-width="1" opacity="0.3686274509803922" d="M 658.5 398 L 659 400.5 L 658 400.5 L 658.5 398 Z " /><path fill="rgb(211,150,74)" stroke="rgb(211,150,74)" stroke-width="1" opacity="0.3686274509803922" d="M 587 402 L 590 402.5 L 587.5 404 L 587 402 Z " /><path fill="rgb(211,150,74)" stroke="rgb(211,150,74)" stroke-width="1" opacity="0.3686274509803922" d="M 646.5 402 L 647 404.5 L 646 404.5 L 646.5 402 Z " /><path fill="rgb(211,150,74)" stroke="rgb(211,150,74)" stroke-width="1" opacity="0.3686274509803922" d="M 657.5 402 L 658 404.5 L 654.5 414 Q 649.3 415.3 648 412.5 L 648.5 410 L 649 413 Q 653.6 414.3 655 411.5 L 657.5 402 Z " /><path fill="rgb(211,150,74)" stroke="rgb(211,150,74)" stroke-width="1" opacity="0.3686274509803922" d="M 1020.5 402 L 1021 409.5 Q 1015.9 430.9 1001.5 443 L 995.5 448 L 981.5 455 L 971.5 457 L 971.5 456 Q 996.8 451.3 1009 433.5 L 1018 417.5 L 1020.5 402 Z " /><path fill="rgb(211,150,74)" stroke="rgb(211,150,74)" stroke-width="1" opacity="0.3686274509803922" d="M 789.5 403 L 790 404.5 L 787 413 L 792 413 L 792 411.5 L 794 405 L 808.5 405 L 810 406.5 L 812.5 413 Q 817.9 414.9 817 411.5 L 818 411.5 L 818 414 L 811 414 L 807.5 406 L 795.5 406 L 795 407.5 L 791.5 414 L 786 414 L 786 411.5 L 789.5 403 Z " /><path fill="rgb(211,150,74)" stroke="rgb(211,150,74)" stroke-width="1" opacity="0.3686274509803922" d="M 428.5 406 L 432 419.5 L 431 419.5 L 428 410.5 L 428.5 406 Z " /><path fill="rgb(211,150,74)" stroke="rgb(211,150,74)" stroke-width="1" opacity="0.3686274509803922" d="M 433.5 423 Q 438.9 434.6 448 442.5 L 440 435.5 Q 434.5 430.3 433.5 423 Z " /><path fill="rgb(211,150,74)" stroke="rgb(211,150,74)" stroke-width="1" opacity="0.3686274509803922" d="M 449.5 443 L 458 449.5 L 456.5 449 L 449 445 L 449.5 443 Z " /><path fill="rgb(211,150,74)" stroke="rgb(211,150,74)" stroke-width="1" opacity="0.3686274509803922" d="M 459.5 450 L 462 451.5 L 460.5 452 L 459.5 450 Z " /><path fill="rgb(211,150,74)" stroke="rgb(211,150,74)" stroke-width="1" opacity="0.3686274509803922" d="M 463.5 452 L 473.5 456 L 479 456.5 L 473.5 457 L 464.5 454 L 463.5 452 Z " /><path fill="rgb(110,167,82)" stroke="rgb(110,167,82)" stroke-width="1" opacity="0.9372549019607843" d="M 483.5 337 L 965.5 337 L 976.5 339 L 992.5 346 L 1008 359.5 Q 1015.4 368.1 1019 380.5 L 1021 401.5 L 1018 417.5 L 1013 427.5 L 997.5 445 Q 986.5 453.5 970.5 457 L 479.5 457 Q 455 452.6 442 436.5 Q 434 427.5 430 414.5 L 428 405.5 L 428 388.5 Q 433.1 363.1 450.5 350 L 463.5 342 L 483.5 337 Z M 577 380 L 571 383 L 565 393 Q 564 402 567 408 Q 569 413 576 414 L 586 414 L 591 411 L 594 405 L 590 402 Q 586 401 587 405 L 582 409 L 577 408 L 572 403 Q 571 394 573 390 Q 575 385 584 386 L 587 391 L 594 390 L 593 387 L 585 380 L 577 380 Z M 611 380 L 606 382 L 601 387 L 598 396 Q 598 405 602 410 L 610 414 Q 620 416 625 412 Q 630 408 631 401 L 631 395 L 629 388 Q 625 379 611 380 Z M 766 380 L 761 382 L 754 392 Q 752 402 756 408 L 762 413 L 769 415 L 777 413 Q 782 411 783 405 L 776 402 L 775 406 L 771 409 L 763 407 L 761 403 L 761 392 L 762 390 L 767 386 L 774 387 L 777 391 L 782 390 L 781 386 Q 777 379 766 380 Z M 833 380 L 825 384 L 821 394 Q 820 403 823 408 L 832 414 Q 841 416 846 412 Q 850 409 850 403 L 846 402 Q 842 401 843 405 L 838 409 L 833 408 L 828 403 Q 826 393 830 389 Q 832 385 840 386 L 843 391 L 850 390 L 848 385 L 841 380 L 833 380 Z M 880 380 L 875 382 L 870 387 L 867 396 L 868 405 L 871 410 L 879 414 Q 889 416 894 412 Q 899 408 900 401 L 900 395 L 897 387 Q 893 379 880 380 Z M 978 380 L 973 382 L 969 388 L 970 394 Q 975 400 987 401 Q 989 402 988 407 L 985 409 L 978 408 L 975 405 L 975 403 L 968 403 L 970 410 L 976 414 Q 980 413 982 415 L 991 413 L 995 407 L 994 399 L 988 394 L 976 391 Q 975 387 978 386 Q 985 384 987 389 L 988 390 L 994 390 L 992 384 Q 988 379 978 380 Z M 445 381 L 445 386 L 454 386 L 455 388 L 455 414 L 461 414 L 461 414 L 461 388 L 463 386 L 471 386 L 471 381 L 445 381 Z M 476 381 L 476 414 L 501 414 L 501 409 L 501 408 L 482 408 L 482 401 L 484 399 L 499 399 L 499 394 L 484 394 Q 481 393 482 388 L 484 386 L 500 386 L 500 381 L 476 381 Z M 507 381 L 507 414 L 530 414 L 530 414 L 530 408 L 515 408 L 513 407 L 514 405 L 514 382 L 514 381 L 507 381 Z M 535 381 L 535 414 L 560 414 L 560 408 L 542 408 L 542 399 L 559 399 L 559 394 L 542 394 L 542 386 L 560 386 L 560 381 L 535 381 Z M 636 381 L 636 414 L 637 414 L 642 414 L 643 390 L 644 393 L 648 413 Q 649 415 655 414 L 656 413 L 661 391 L 662 391 L 662 414 L 663 414 L 668 414 L 668 382 L 668 381 L 659 381 L 657 383 L 653 401 L 652 402 L 647 383 L 646 381 L 636 381 Z M 675 381 L 675 407 L 676 410 L 683 414 L 695 414 L 697 413 L 701 408 L 701 382 L 701 381 L 695 381 L 695 403 L 694 407 L 690 409 L 685 408 L 681 403 L 681 382 L 681 381 L 675 381 Z M 708 381 L 708 413 Q 709 415 714 414 L 715 413 L 716 393 L 727 413 L 729 414 L 735 414 L 735 382 L 735 381 L 729 381 L 729 402 L 716 383 L 716 381 L 708 381 Z M 742 381 L 742 414 Q 747 415 749 413 L 749 382 L 749 381 L 742 381 Z M 799 381 L 786 412 L 786 414 L 792 414 L 795 408 L 796 406 L 808 406 L 811 413 L 812 414 L 818 414 L 817 409 L 806 384 L 806 381 L 799 381 Z M 856 381 L 856 414 L 857 414 L 862 414 L 862 382 L 862 381 L 856 381 Z M 905 381 L 905 414 L 906 414 L 911 414 L 912 393 L 926 414 Q 931 415 932 413 L 932 382 L 932 381 L 925 381 L 925 398 L 926 399 L 925 402 L 913 383 Q 911 379 905 381 Z M 939 381 L 939 414 L 964 414 L 964 409 L 964 408 L 945 408 L 945 401 L 947 399 L 962 399 L 962 394 L 947 394 Q 944 393 945 388 L 947 386 L 963 386 L 963 381 L 939 381 Z " /><path fill="rgb(110,167,82)" stroke="rgb(110,167,82)" stroke-width="1" opacity="0.9372549019607843" d="M 611.5 386 Q 621.3 384.3 623 390.5 L 624 400.5 L 620.5 407 L 613.5 409 L 606 403.5 L 605 394.5 L 609.5 387 L 611.5 386 Z " /><path fill="rgb(110,167,82)" stroke="rgb(110,167,82)" stroke-width="1" opacity="0.9372549019607843" d="M 880.5 386 Q 889.9 384.6 892 390.5 L 893 400.5 L 887.5 408 L 882.5 409 L 875 403.5 L 874 394.5 L 878.5 387 L 880.5 386 Z " /><path fill="rgb(110,167,82)" stroke="rgb(110,167,82)" stroke-width="1" opacity="0.9372549019607843" d="M 801.5 389 L 806 401 L 798 401 L 798 397.5 L 801.5 389 Z " /><path fill="rgb(218,150,71)" stroke="rgb(218,150,71)" stroke-width="1" opacity="0.996078431372549" d="M 144.5 0 L 168.5 0 L 187.5 4 L 204.5 10 Q 235 24.5 256 48.5 Q 315 115.8 330 226 L 333.5 227 L 348.5 227 L 354 226 L 475.5 59 L 478.5 58 L 479.5 59 L 526.5 59 L 527.5 60 L 560 60.5 L 557.5 62 L 517.5 69 L 511 73.5 L 311 312.5 L 307 319 L 304 318.5 L 304 305.5 L 303 304.5 L 302 284.5 L 300 275.5 L 300 266.5 L 299 265.5 L 294 226.5 L 284 182.5 L 272 144.5 Q 259.2 110.8 241 82.5 Q 227 61.9 208.5 46 Q 193 32.5 171.5 25 L 157.5 22 L 135.5 22 Q 103.6 28.6 86 49.5 Q 70.2 67.2 62 92.5 L 56 121.5 L 56 160.5 L 57 161.5 L 59 181.5 L 65 207.5 L 76 237.5 Q 91.3 272.2 116.5 297 Q 150.1 330.9 202.5 346 L 242.5 354 L 264.5 355 L 265.5 356 L 294.5 356 L 295.5 355 L 306.5 355 L 307.5 354 L 317.5 354 L 318.5 353 L 331.5 352 L 350.5 348 L 379.5 339 L 414.5 323 L 436 308.5 L 426 301.5 Q 420.7 296.3 421 285.5 L 424 274.5 L 430 261.5 L 454 218.5 L 457.5 215 Q 462.6 217.4 471.5 216 L 476 215 L 473 223.5 L 436 287.5 L 434 294.5 L 434 300.5 L 436.5 304 L 441.5 305 Q 462.8 290.8 479 271.5 L 492 253.5 L 561.5 136 L 580.5 136 L 581 137.5 L 521 237.5 L 523 236.5 Q 529.9 224.9 540.5 217 Q 545.5 213 554.5 213 Q 565.2 215.3 570 223.5 L 574 234.5 L 574 247.5 Q 566.9 273.4 547.5 287 Q 534.9 297.9 518.5 305 L 507.5 308 L 497.5 308 L 487 301.5 L 484.5 298 L 480 301.5 L 475 308.5 L 451.5 332 Q 416.9 362.9 368.5 380 L 339.5 388 L 316.5 392 L 297.5 393 L 296.5 394 L 258.5 394 L 257.5 393 L 238.5 392 L 209.5 387 L 182.5 380 L 154.5 370 Q 102.3 349.2 66 312.5 Q 34.5 281 16 236.5 L 4 197.5 L 1 170.5 L 0 169.5 L 0 147.5 L 6 113.5 L 15 89.5 Q 29 61.5 51.5 42 Q 69.2 26.7 91.5 16 L 120.5 5 L 144.5 0 Z M 550 216 L 540 222 Q 516 245 499 275 L 491 293 L 491 301 L 497 305 Q 505 306 510 303 L 520 296 Q 547 272 561 235 L 561 223 L 560 221 Q 558 215 550 216 Z " /><path fill="rgb(218,150,71)" stroke="rgb(218,150,71)" stroke-width="1" opacity="0.996078431372549" d="M 962.5 134 L 963.5 135 L 977.5 135 L 981 134 L 904 270.5 L 894 293.5 L 894 301.5 Q 895.2 306.3 902.5 305 L 910.5 301 L 924 287.5 L 951.5 251 L 952 253.5 Q 936.6 278.6 916.5 299 L 902.5 308 L 895.5 308 Q 888.3 306.2 885 300.5 Q 879.9 293.6 882 279.5 L 884 273.5 L 881 275.5 L 863.5 297 L 849.5 307 L 840.5 308 L 830 301.5 Q 824 294.5 826 279.5 L 827 275.5 L 824 277.5 Q 815.2 292.2 802.5 303 L 793.5 308 L 785.5 308 Q 776.4 305.5 772 298.5 Q 766.1 290.4 767 275.5 Q 769.5 274 768 268.5 L 765.5 270 L 752.5 278 L 742.5 278 L 737 274.5 Q 731.8 268.7 734 255.5 L 735 253.5 L 733.5 254 Q 731.3 253.3 732 255.5 L 726 260.5 L 713 278.5 L 697.5 306 L 678.5 306 L 678 303.5 L 714 242.5 L 720 229.5 L 722 223.5 L 722 218.5 Q 721.3 215.3 716.5 216 L 712.5 218 L 701 229.5 L 680 259.5 L 671.5 268 L 658.5 277 Q 653.9 279.9 645.5 279 Q 644 276.5 638.5 278 Q 630.9 290.9 619.5 300 L 607.5 307 L 594.5 308 Q 584.9 305.6 580 298.5 L 574 286.5 L 574 271.5 Q 579.9 249.9 595.5 238 Q 609.3 225.3 627.5 217 L 635.5 214 L 647.5 213 Q 654.1 213.9 657 218.5 L 659 223.5 L 660 232.5 L 654 253.5 L 643 271.5 L 642 276 L 648.5 277 Q 666.6 273.1 676 260.5 Q 690 238.5 707.5 220 L 715.5 214 L 721.5 213 Q 728 214.5 731 219.5 Q 734.9 225.6 733 237.5 L 725 258.5 L 727 257.5 L 729.5 254 L 737 247.5 L 740 239.5 L 750 224 Q 752.7 225.1 752 222.5 L 763.5 214 L 771.5 214 L 774 218.5 L 772 223.5 L 762.5 233 L 742.5 246 L 738 250.5 Q 735.7 257.2 737 267.5 L 742.5 275 L 749.5 276 L 757.5 273 L 770 261.5 Q 777.5 248.5 788.5 239 Q 803.3 226.3 822.5 218 L 833.5 214 L 844.5 213 L 852 217.5 L 854.5 225 L 860.5 215 L 873.5 216 L 880 215 L 849 269.5 L 840 288.5 L 838 298.5 L 840 304 Q 842.1 305.6 847.5 305 L 853.5 302 L 864 292.5 Q 884.1 270.6 900 244.5 L 943 168.5 L 960 135 L 962.5 134 Z M 640 216 L 626 224 Q 612 238 601 255 L 593 270 L 588 286 Q 586 296 590 302 L 597 305 Q 611 305 618 298 Q 629 289 637 276 L 632 266 L 633 257 L 640 245 L 648 239 L 655 240 L 656 239 Q 655 234 657 233 L 656 224 L 654 220 Q 651 214 640 216 Z M 840 216 Q 827 220 820 228 Q 804 243 792 262 Q 783 273 780 291 L 781 301 L 787 305 L 796 304 L 802 300 Q 824 278 840 251 L 850 230 L 850 220 Q 848 215 840 216 Z " /><path fill="rgb(218,150,71)" stroke="rgb(218,150,71)" stroke-width="1" opacity="0.996078431372549" d="M 478.5 176 L 487.5 176 L 490 178.5 L 491 185.5 L 485.5 195 Q 481.7 198.7 474.5 199 L 469 195.5 L 468 187.5 L 476.5 177 L 478.5 176 Z " /></svg>