<svg id="Capa_1" data-name="Capa 1" xmlns="http://www.w3.org/2000/svg" viewBox="0 0 284.84 185.81"><defs><style>.cls-1{fill-opacity:0;}.cls-2{fill:#fea21d;stroke:#fea21d;opacity:0.49;}.cls-2,.cls-3,.cls-4{stroke-width:0.18px;}.cls-2,.cls-3{isolation:isolate;}.cls-3{fill:#fea01e;stroke:#fea01e;opacity:1;}.cls-4{fill:#ffa11f;stroke:#ffa11f;}</style></defs><path class="cls-1" d="M140.27,81.17h53.16v48.09H140.27ZM115,20.64l-.18.18h-2.35l-.18.18-4.88.36L99.3,22.8l-7.58,2-8.13,2.87a95.68,95.68,0,0,0-28.72,18A92.38,92.38,0,0,0,33.38,74a84.6,84.6,0,0,0-6,15.82l-1.8,8.09-.55,4.85-.18.18v1.44l-.18.18v1.79l-.18.18V120.4l.18.18v2l.54,3.06v1.26l.91,5,1.44,5.93,2.17,6.65a89.83,89.83,0,0,0,8,16.36A94.52,94.52,0,0,0,78.53,197L85.76,200l9.57,3.05,10.48,2.16,4,.36.18.18h1.63l.18.18h2.16l.18.18h13.37l.18-.18h2.17l.18-.18,4.51-.36,9.57-1.8,9.76-2.88a95.31,95.31,0,0,0,54.54-48.53,89.75,89.75,0,0,0,6.5-18.69l1.45-8.09.36-4.86.18-.18v-2.87l.18-.18-.18-10.61-.18-.18v-2l-.18-.18V103l-.18-.18L216,99l-1.81-8.44L211.82,83A92.52,92.52,0,0,0,193,52.1a96.83,96.83,0,0,0-35-24.45l-8.13-2.87-4.51-1.26-9.93-2-4.16-.36-.18-.18h-1.81l-.18-.18h-2.34l-.18-.18Zm138,43.5-.9.36A2.26,2.26,0,0,0,251,66.12v18l.55,1.08,1.08.54H265.1l.72-.36.55-.9c.12-.84,0-1.37-.36-1.61l-.91-.72h-9.57v-16l-.36-.9A2.18,2.18,0,0,0,253,64.14Zm22.94,0-2.53.54-2.71,1.44a9.43,9.43,0,0,0-4,6.83v4.67l.18.9a14,14,0,0,0,2.17,4.5,8.85,8.85,0,0,0,5.59,3H279l.9-.18,2.89-1.44A7.68,7.68,0,0,0,285.69,80a2.68,2.68,0,0,0-.18-1.8l-1.08-1.08-1.63.18-.72.72a5.9,5.9,0,0,1-1.63,3.24,4.91,4.91,0,0,1-2.34,1.26,5.94,5.94,0,0,1-4.34-.72l-1.62-1.62-.91-2.88V73.67a1.07,1.07,0,0,0,.18-1.08l1.09-2.52,2-1.79,2-.54,2,.18,1.62.9a8.17,8.17,0,0,1,1.81,2.87l1.26.9,1.63-.18.9-1.26-.18-1.62-1.26-2.15a10.51,10.51,0,0,0-3.8-2.7l-2.52-.54Zm21.67,0-3.07.72L292,66.3l-2.16,2.52-1.09,2.51-.36,1.8v4.13q.36.18.18,1.08a11.58,11.58,0,0,0,1.81,4.14,9.06,9.06,0,0,0,6.32,3.59H301l.91-.18a8.87,8.87,0,0,0,4-2,10.19,10.19,0,0,0,3.25-6.29V73a1.07,1.07,0,0,1-.18-1.08l-.9-2.52L307,67.74Q304.3,64,297.61,64.14Zm-84.7.36-1.09.36-.9,1.44.18,1.08,1.26.9h5.42v16l.54,1.26,1.09.54a2.21,2.21,0,0,0,2-.18,2.3,2.3,0,0,0,.9-1.44V68.28h5.6l.72-.36.54-.9L229,65.58a2.22,2.22,0,0,0-1.62-1.08Zm21,0-1.27.36-1.08,1.44v18l.36.72,1.26.72h13.73l.36-.18.72-.9V83.38l-.36-.72-1.26-.54H236V76.36h9.76l.36-.17.72-1.08L246.68,74l-.72-.9-.72-.18H236V68.1h10.3l.72-.36.54-.72-.18-1.62-.36-.54L246,64.5Z" transform="translate(-24.44 -20.45)"/><path class="cls-1" d="M81.88,58l.36.18,3.79.18,3.61.9,5.78,2,4.52,2.15A52.3,52.3,0,0,1,111,72.68a53.16,53.16,0,0,1,6.87,8.45l3.61,6.11,4.88,9.53,5,14.2.36,2.15,2.17,8.27.18,2.52.72,2.88v.89l.64,1.71,6.32.18,39-53.38,27,.8-14,2.43-.63.63-65.65,77.74-.27-.63v-1.79l-.18-.18-.72-8.63-.19-.18-.72-6.83-.36-1.44v-1.26l-.18-.18v-1.08l-.54-2.15-.36-3.06-.54-2-.55-3.77-.9-2.88-.54-3-3.25-11.33-1.09-2.51-1.62-5L110.14,88.5l-5.78-9-5.15-5.3a37.07,37.07,0,0,0-11.92-7.73l-7.22-2H78.62l-.18-.18H73.57l-.18.18H71.76l-2.35.72-4.69,2.34A37.24,37.24,0,0,0,57,74.3a48.87,48.87,0,0,0-7,13.84l-.91,4-.54,4.32-.18.18V98l-.18.17v7.55l.36,1.62V109l.18.18.36,4.49,1.09,5.22,1.8,6.83,2.89,7.19L57.94,139l2.53,4.13a59.61,59.61,0,0,0,8.58,9.62l7.59,6.11,3.79,2.34,5.24,2.52,6.14,2.33,7,2,3.61.72,4.88.54.18.18,6,.36.18.18h8l.18-.18h6.32l.18-.18h1.27l.18-.18,2.53-.18.18-.18,5.41-.72,8.49-2.16,7.05-2.51,7.4-3.6,8.31-5.21,4.88-3.6,5-4.67h.36l2.8-2.79a118.65,118.65,0,0,0,9.39-11l5.24-8.09,4.16-8.09a18.1,18.1,0,0,1,2-4.67l2.71-8.36.81-.18,3.8-.18-.09.27-1.09,4.49-.18,1.62-1.62,6.11L204.78,123,201,131.46a100.19,100.19,0,0,1-19.24,25.08l-7.4,6.11-6.87,4.67-9.93,5.75-6.5,2.88-6.14,2.16-6.32,1.61-5.42,1.08-5.78.36-.18.18H124.5l-.18.18h-11.2l-.18-.18h-2l-.18-.18-5-.36L95.24,179l-6.5-1.79-9.57-3.42-9.58-4.49-5.23-3.06-8.13-5.93-5-4.76-7.94-9.89-3.62-5.93-4.15-8.63-1.63-5.57-.54-1.08-1.8-9.17-.18-3.77-.19-.18v-1.8l-.18-.18v-6.29l.18-.18.37-3.24,1.62-7L35,88l2.53-5,2.89-4.5,5.5-5.84,4.52-4,2.71-1.8L58.22,64l5.05-2.34,5.06-1.79h.72l4.7-1.26H75l1.63-.36h5Z" transform="translate(-24.44 -20.45)"/><path class="cls-1" d="M298.24,67.74q3.52,0,5,2.06l1.26,2.7c-.14.56-.08.92.19,1.08v3.23l-.91,2.88-1.89,2.07-1.81.72h-2.53a5.71,5.71,0,0,1-3.34-2.25q-1.57-2.3-1.26-6.47l.72-2.7a5.57,5.57,0,0,1,1.71-2.24l1.27-.72Z" transform="translate(-24.44 -20.45)"/><path class="cls-2" d="M114.93,20.64l4.42.09-4.42.09Z" transform="translate(-24.44 -20.45)"/><path class="cls-2" d="M122.15,20.64l4.43.09-4.43.09Z" transform="translate(-24.44 -20.45)"/><path class="cls-2" d="M112.4,20.82l2.08.09L112.4,21Z" transform="translate(-24.44 -20.45)"/><path class="cls-2" d="M127,20.82l2.07.09L127,21Z" transform="translate(-24.44 -20.45)"/><path class="cls-2" d="M110.41,21l1.72.09-1.72.09Z" transform="translate(-24.44 -20.45)"/><path class="cls-2" d="M129.38,21l1.71.09-1.71.09Z" transform="translate(-24.44 -20.45)"/><path class="cls-2" d="M108.79,21.18l1.35.09-1.35.09Z" transform="translate(-24.44 -20.45)"/><path class="cls-2" d="M131.36,21.18l1.36.09-1.36.09Z" transform="translate(-24.44 -20.45)"/><path class="cls-2" d="M107.34,21.36l1.18.09L105,21.9v-.18l2.17-.18Z" transform="translate(-24.44 -20.45)"/><path class="cls-2" d="M133,21.36l3.52.45-1,.09-.18-.18L133,21.54Z" transform="translate(-24.44 -20.45)"/><path class="cls-2" d="M103.91,21.9l.81.09-.81.09Z" transform="translate(-24.44 -20.45)"/><path class="cls-2" d="M136.78,21.9l.81.09-.81.09Z" transform="translate(-24.44 -20.45)"/><path class="cls-2" d="M102.83,22.08l.81.09-1.72.27v-.18Z" transform="translate(-24.44 -20.45)"/><path class="cls-2" d="M137.86,22.08l1.72.27-.81.09-.91-.18Z" transform="translate(-24.44 -20.45)"/><path class="cls-2" d="M101,22.44l.63.09-.63.09Z" transform="translate(-24.44 -20.45)"/><path class="cls-2" d="M139.85,22.44l.63.09-.63.09Z" transform="translate(-24.44 -20.45)"/><path class="cls-2" d="M100.12,22.62l.63.09-2.26.45V23Z" transform="translate(-24.44 -20.45)"/><path class="cls-2" d="M140.75,22.62l3,.63-.63.09-2.35-.54Z" transform="translate(-24.44 -20.45)"/><path class="cls-2" d="M97.77,23.16l.45.09-.45.09Z" transform="translate(-24.44 -20.45)"/><path class="cls-2" d="M96.87,23.34l.63.09-1.9.45V23.7Z" transform="translate(-24.44 -20.45)"/><path class="cls-2" d="M144,23.34l1.9.45-.45.09L144,23.52Z" transform="translate(-24.44 -20.45)"/><path class="cls-2" d="M94.88,23.88l.45.09-1.72.45v-.18Z" transform="translate(-24.44 -20.45)"/><path class="cls-2" d="M146.17,23.88l1.72.45-.45.09-1.27-.36Z" transform="translate(-24.44 -20.45)"/><path class="cls-2" d="M92.89,24.42l.45.09-6.41,2.06v-.18Z" transform="translate(-24.44 -20.45)"/><path class="cls-2" d="M148.16,24.42A61.79,61.79,0,0,1,160,28.64l-.27.09a60.58,60.58,0,0,0-11.56-4.13Z" transform="translate(-24.44 -20.45)"/><path class="cls-2" d="M86.39,26.57l.27.09-1.17.45v-.18Z" transform="translate(-24.44 -20.45)"/><path class="cls-2" d="M85,27.11l.27.09-2.44,1V28Z" transform="translate(-24.44 -20.45)"/><path class="cls-2" d="M82.24,28.19l.27.09-1,.45v-.18Z" transform="translate(-24.44 -20.45)"/><path class="cls-2" d="M81,28.73l.27.09-1.35.63v-.18Z" transform="translate(-24.44 -20.45)"/><path class="cls-2" d="M160.26,28.73A94.3,94.3,0,0,1,193,52a89.42,89.42,0,0,1,14.45,21l-.36-.18A88.27,88.27,0,0,0,187,46.17a96.58,96.58,0,0,0-13.37-10.25l-6.14-3.59-7.22-3.42Z" transform="translate(-24.44 -20.45)"/><path class="cls-2" d="M79.35,29.45l.27.09A95.89,95.89,0,0,0,48.73,51.83,90.68,90.68,0,0,0,31.31,79.06l-.1-.27A93,93,0,0,1,54.78,45.63,95.65,95.65,0,0,1,79.35,29.45Z" transform="translate(-24.44 -20.45)"/><path class="cls-2" d="M77.18,57.85h6.5l.18.18h1.63l6.32,1.62,4.69,1.8A44.69,44.69,0,0,1,111,72.32l4.34,4.85L118.09,81a150,150,0,0,1,8.67,16l4.87,13.66,2.53,10.24.72,5.4.55,2.51.27.27.54.18h5.6l39-53.38q.87-.22,1.08.18h5.42l.18.18h5.06l.18.17h6l.18.18,10,.18-1.44-3.32h.18a73.23,73.23,0,0,1,6.14,16.18h-.18l-2-6.65-2.35-5.85-6.95,1.08-1.08.36h-.91l-1.08.36-2,.18-1.08.36-2,.18-.81.63-66,78.1-.27-.09V156.8l-.18-.17v-1.8l-.36-2-.37-5.57-.18-.18v-1.26l-.36-1.44-.18-2.69-.18-.18-.9-7.37-.36-1.26v-1.08l-1.45-6.65v-.9l-1.44-5.21v-.72l-3.43-11.69-3.62-9.52L110,88.68l-5.78-9-5.33-5.48a37.1,37.1,0,0,0-11.38-7.37l-7-2-5.24-.36-.18.18-3.61.18a21.57,21.57,0,0,0-5.6,2.34,36.49,36.49,0,0,0-8.58,7.28L55.6,76.63,52.71,82,50.36,88l-.9,3.59-.55,4.32-.18.18v1.26l-.18.18v1.43l-.18.18v5.76l.18.18v1.43l.36,1.8.37,4.85.9,3.6.36,2.52.36.72,1.45,5.93,2.71,6.83a63.88,63.88,0,0,0,6.14,11,60.28,60.28,0,0,0,6.41,7.46l7.94,6.65L80.61,161l4.88,2.34,6.68,2.51,4.7,1.44,2.52.36,2.71.72,5.78.72.18.18,4.34.18.18.18h12.64l.18-.18H129l.18-.18,6.15-.72,5.23-1.08,10.84-3.24,5.06-2.15a104.7,104.7,0,0,0,15-9.17,53.19,53.19,0,0,0,7.4-6.47l.54-.18,3.35-3.33a104.3,104.3,0,0,0,9-10.78l5.59-8.81,3.26-6.47a24.34,24.34,0,0,1,2.34-5.57l2.35-7v-.54l.45-.45,4.79-.18-2.89,12.49-2.53,7.19L201,132l-4,6.83-4.33,5.93-5.24,6.29-5.33,5.49-7.58,6.29-8.31,5.57-8.49,4.85-6.86,3.06-6.32,2.16-6.14,1.61-1.81.18-2.89.72-4.88.36-.18.18-5.23.18-.19.18h-8.66l-.19-.18h-2.7l-.18-.18L105,181l-9.39-1.62-6.68-1.79-10.84-4-9.39-4.49-5.6-3.42-7-5.21-5.87-5.84-7.41-9.35-3.25-5.39-4.33-9L33,124.09l-1.81-9.17L31,111l-.36-1.62v-6.29L31,102l.18-2.16L33,92.27l1.81-4.49a49.24,49.24,0,0,1,5.05-9l5.87-6.38L51,67.92A72.21,72.21,0,0,1,60.2,62.7L68,59.65l5.24-1.26,2.52-.18ZM82,58l-.18.18H76.73l-1.63.36H73.84l-4.7,1.26h-.72l-5.06,1.79-5,2.34-5.06,2.88-2.71,1.8-4.52,4-5.59,5.93L37.54,83l-2.53,5L33.2,92.72l-1.62,7L31.21,103l-.18.18v6.29l.18.18v1.8l.19.18.18,3.77,1.8,9.17.54,1.08,1.63,5.57,4.15,8.63,3.62,5.93,7.94,9.89,5.06,4.67,8.13,5.93,5.23,3.06,9.58,4.49,9.57,3.42,6.5,1.79,10.48,1.8,5,.36.18.18h2l.18.18h11.2l.18-.18h2.71l.18-.18,5.78-.36,5.42-1.08,6.32-1.61,6.14-2.16,6.5-2.88,9.93-5.75,6.87-4.67,7.4-6.11a100.93,100.93,0,0,0,19.15-25l3.79-8.45,2.53-7.19,1.62-6.11.18-1.62,1.09-4.49.18-.36-3.79.18-.91.18L203,112.14a16.47,16.47,0,0,0-2,4.67l-4.16,8.09L191.59,133a114.62,114.62,0,0,1-9.39,11l-2.71,2.7h-.36l-5,4.67-4.88,3.6-8.31,5.21-7.4,3.6-7.05,2.51L138,168.4l-5.41.72-.18.18-2.53.18-.18.18h-1.27l-.18.18h-6.32l-.18.18h-8l-.18-.18-6-.36-.18-.18-4.88-.54L98.94,168l-7-2-6.14-2.33-5.24-2.52-3.79-2.34-7.59-6.11a59.27,59.27,0,0,1-8.67-9.53l-2.53-4.13L54.87,133,52,125.8,50.18,119l-1.09-5.22-.36-4.49-.18-.18v-1.62l-.36-1.62V98.29l.18-.17V96.68l.18-.18.54-4.32.91-4a45.35,45.35,0,0,1,7-13.84,38,38,0,0,1,7.77-6.83l4.69-2.34,2.35-.72h1.63l.18-.18h4.87l.18.18h1.45l7.22,2A38.42,38.42,0,0,1,99.3,74.21l5.06,5.39,5.78,9,5.42,11.32,1.62,5,1.09,2.51,3.25,11.33.54,3,.9,2.88.55,3.77.54,2,.36,3.06.54,2.15v1.08l.18.18v1.26l.36,1.44.72,6.83.19.18.72,8.63.18.18v1.79l.36.54,65.56-77.65.72-.72,13.91-2.34-26.91-.89-39,53.38-6.32-.18-.73-1.62v-.89l-.72-2.88-.18-2.52-2.17-8.27-.36-2.15-5-14.2-4.88-9.53-3.61-6.11A52.78,52.78,0,0,0,111,72.77a54.77,54.77,0,0,0-11-9.35l-4.52-2.15-5.78-2-3.61-.9-3.79-.18Z" transform="translate(-24.44 -20.45)"/><path class="cls-2" d="M252.91,64.14l.81.09-.81.09Z" transform="translate(-24.44 -20.45)"/><path class="cls-2" d="M275.85,64.14l2.08.09-2.08.09Z" transform="translate(-24.44 -20.45)"/><path class="cls-2" d="M297.52,64.14l2.44.09-2.44.09-2.53.54v-.18Z" transform="translate(-24.44 -20.45)"/><path class="cls-2" d="M252.37,64.32l.27.09-1.08.72-.36.9V84l1,1.35,1.35.27-1,.09-1-.63L251,84V66a2.41,2.41,0,0,1,1-1.53Z" transform="translate(-24.44 -20.45)"/><path class="cls-2" d="M254,64.32l1.18.81.36.9V82h-.18V66l-.81-1.35C254.09,64.66,253.91,64.54,254,64.32Z" transform="translate(-24.44 -20.45)"/><path class="cls-2" d="M274.58,64.32l1,.09L273,65v-.18Z" transform="translate(-24.44 -20.45)"/><path class="cls-2" d="M278.2,64.32h.9l2.17.72,3,2.25,1.26,2.15.18,1.62-1,1.35-1.63.18v-.18c1.09.18,1.78,0,2.08-.63a1.81,1.81,0,0,0,.36-1.62,6.41,6.41,0,0,0-1.9-3.32l-2.34-1.62-2.17-.72h-.9Z" transform="translate(-24.44 -20.45)"/><path class="cls-2" d="M300.23,64.32l1,.09-1,.09Z" transform="translate(-24.44 -20.45)"/><path class="cls-2" d="M212.82,64.5l14.54.09-14.54.09-1.36.54-.27.72-.09-.27.63-.81Z" transform="translate(-24.44 -20.45)"/><path class="cls-2" d="M233.77,64.5l12.19.09-12.19.09Z" transform="translate(-24.44 -20.45)"/><path class="cls-2" d="M301.49,64.5A8.53,8.53,0,0,1,307,67.65a5.7,5.7,0,0,1,1.45,2.69h-.18a7.53,7.53,0,0,0-2.62-3.86L303.12,65l-1.63-.36Z" transform="translate(-24.44 -20.45)"/><path class="cls-2" d="M227.63,64.68a1.51,1.51,0,0,1,1.35.81l.18,1.44-.63,1-.72.36H222.3V84.36a2.24,2.24,0,0,1-1,1.53l-.9.18v-.18h.54l.82-.63.36-.9v-16l.27-.27h5.42l1-.81.18-1.44-.63-.81-.72-.18Z" transform="translate(-24.44 -20.45)"/><path class="cls-2" d="M232.86,64.68l.64.09a1.52,1.52,0,0,0-1.45.72l-.36.72v18l.63,1a2.37,2.37,0,0,0,1.72.45l-1,.09-1.17-.81-.36-.72v-18l1-1.35Z" transform="translate(-24.44 -20.45)"/><path class="cls-2" d="M246.23,64.68a1.31,1.31,0,0,1,1.17.63l.18,1.62-.63.81-.72.36H236V73h9.13l.72.18.81.81-.09.27-.72-.9-.72-.18h-9.31V67.92h10.39l1-.63.18-1.62L247,65l-.72-.18Z" transform="translate(-24.44 -20.45)"/><path class="cls-2" d="M294.45,64.86l.27.09-1,.45v-.18Z" transform="translate(-24.44 -20.45)"/><path class="cls-2" d="M272.42,65l.27.09a8.43,8.43,0,0,0-3.61,2.7,10.34,10.34,0,0,0-2.26,6.74l-.09-1.71a10,10,0,0,1,3.88-6.74Z" transform="translate(-24.44 -20.45)"/><path class="cls-2" d="M293.37,65.4l-.18.36-.54.18-1.72,1.53-1.54,2.6-.09-.27a9.42,9.42,0,0,1,2.62-3.5Z" transform="translate(-24.44 -20.45)"/><path class="cls-2" d="M211,66.12a2,2,0,0,0,.9,1.8l.36.18H218V84.18a2.45,2.45,0,0,0,1.09,1.62l-.27-.09-.46-.27-.54-1.26V68.28h-5.51l-1.17-1Z" transform="translate(-24.44 -20.45)"/><path class="cls-2" d="M276.57,67.56l.63.09-.63.09Z" transform="translate(-24.44 -20.45)"/><path class="cls-2" d="M298.42,67.56l.64.09-.64.09Z" transform="translate(-24.44 -20.45)"/><path class="cls-2" d="M275.49,67.74l.81.09-.81.09Z" transform="translate(-24.44 -20.45)"/><path class="cls-2" d="M277.47,67.74l.82.09-.82.09Z" transform="translate(-24.44 -20.45)"/><path class="cls-2" d="M297.34,67.74l.81.09-1.35.27v-.18Z" transform="translate(-24.44 -20.45)"/><path class="cls-2" d="M299.33,67.74a4.66,4.66,0,0,1,4.06,2.06,4.24,4.24,0,0,1,1.08,2.52h-.18a5.48,5.48,0,0,0-2.07-3.5l-2-.9h-.9Z" transform="translate(-24.44 -20.45)"/><path class="cls-2" d="M275,67.92l.27.09a4.78,4.78,0,0,0-2.71,2l-1,2.43-.09-.45a8.78,8.78,0,0,1,1.63-3Z" transform="translate(-24.44 -20.45)"/><path class="cls-2" d="M278.56,67.92a3.62,3.62,0,0,1,2.26,1.52l1.26,2.16.72.72-.9-.72a6.43,6.43,0,0,0-1.9-2.78l-1.44-.72Z" transform="translate(-24.44 -20.45)"/><path class="cls-2" d="M296.26,68.1l.27.09a4.56,4.56,0,0,0-2.17,1.61l-1,2.07-.09-.27a5.68,5.68,0,0,1,2.07-3Z" transform="translate(-24.44 -20.45)"/><path class="cls-2" d="M289.21,70.25l.09.27-.63,2.25-.09-.81Z" transform="translate(-24.44 -20.45)"/><path class="cls-2" d="M308.54,70.61l.45,1.17v.72h-.18Z" transform="translate(-24.44 -20.45)"/><path class="cls-2" d="M293.19,72.05l.09.45a7.37,7.37,0,0,0-.36,4l.36,1.8.9,2,1.35,1.35,2,.9h2.53a5,5,0,0,0,3.34-2.25l.27-.45-.09.27-1,1.35-2.53,1.26h-2.53A5.41,5.41,0,0,1,294,80.23q-1.58-2.3-1.26-6.47Z" transform="translate(-24.44 -20.45)"/><path class="cls-2" d="M271.33,72.59l.09.81-.18.18-.09,3.5-.09-3.5Z" transform="translate(-24.44 -20.45)"/><path class="cls-2" d="M304.57,72.59a8.58,8.58,0,0,1,.27,4h-.18v-3Q304.24,73.32,304.57,72.59Z" transform="translate(-24.44 -20.45)"/><path class="cls-2" d="M309.08,72.77l.09,1.53H309Z" transform="translate(-24.44 -20.45)"/><path class="cls-2" d="M288.49,73l.09,4.22h-.18Z" transform="translate(-24.44 -20.45)"/><path class="cls-2" d="M246.77,74.39l.09.63-.81,1.17-1.09.17v-.17c.84.1,1.35-.11,1.54-.63Z" transform="translate(-24.44 -20.45)"/><path class="cls-2" d="M266.82,75.83c.18,3.65,1.32,6.35,3.43,8.08a7.85,7.85,0,0,0,3.34,1.71l-.45.09a8.66,8.66,0,0,1-4.06-2.78,11.17,11.17,0,0,1-2-3.78l-.36-1.62Z" transform="translate(-24.44 -20.45)"/><path class="cls-2" d="M309.08,75.83l.09,1.7a10.22,10.22,0,0,1-3.34,6.38l-2.53,1.44v-.18a6.5,6.5,0,0,0,3-1.88Q308.9,80.77,309.08,75.83Z" transform="translate(-24.44 -20.45)"/><path class="cls-2" d="M235.93,76.36l.09,5.76,10.3.09-10.48.09Z" transform="translate(-24.44 -20.45)"/><path class="cls-2" d="M304.57,76.9l.09.81-.28.63-.09-.45Z" transform="translate(-24.44 -20.45)"/><path class="cls-2" d="M283.07,77.08c1.34-.19,2.15.14,2.44,1a2.31,2.31,0,0,1,.18,1.8,7.44,7.44,0,0,1-3,4.58l-2.35,1.26-1.08.18v-.18a7.62,7.62,0,0,0,4.79-2.78l1.26-2.34.18-2.16-.81-1-1.63-.18-.81.63-.81,1.89-.09-.27.72-1.62.63-.63Z" transform="translate(-24.44 -20.45)"/><path class="cls-2" d="M271.33,77.26A5.31,5.31,0,0,0,278,82.48a4.41,4.41,0,0,0,2.43-1.35l.82-1.17-.09.27-1,1.35L278,82.66h-2.53a4.72,4.72,0,0,1-3.16-2.07l-.91-1.8Z" transform="translate(-24.44 -20.45)"/><path class="cls-2" d="M288.67,77.44a9.65,9.65,0,0,0,3.61,6.65,8.78,8.78,0,0,0,3.44,1.62l2.43.27-1.53.09a9.26,9.26,0,0,1-6.23-3.68A8.18,8.18,0,0,1,288.67,77.44Z" transform="translate(-24.44 -20.45)"/><path class="cls-2" d="M304.2,78.52l.09.27-.45.81.09-.27Z" transform="translate(-24.44 -20.45)"/><path class="cls-2" d="M31.12,79.24l.09.27L30,82.3,30,82Z" transform="translate(-24.44 -20.45)"/><path class="cls-2" d="M264.47,82.12c.79-.07,1.31.13,1.54.63a1.86,1.86,0,0,1,.36,1.61l-.64,1a1.51,1.51,0,0,1-1.44.36v-.18c.95.11,1.52-.16,1.72-.81l.18-1.25-.82-1-.9-.18Z" transform="translate(-24.44 -20.45)"/><path class="cls-2" d="M246.59,82.3l1,.36.36.63v1.25l-.81,1-1.08.18v-.18q1.24.16,1.53-.63l.18-1.61-.81-.81h-.36Z" transform="translate(-24.44 -20.45)"/><path class="cls-2" d="M29.86,82.48l.09.27-1.62,4.49-1.9,7.64-.09-.63,1.8-7Z" transform="translate(-24.44 -20.45)"/><path class="cls-2" d="M302.76,85.35l.27.09-1.72.45v-.18Z" transform="translate(-24.44 -20.45)"/><path class="cls-2" d="M273.86,85.71l2.26.27-1.54.09-.72-.18Z" transform="translate(-24.44 -20.45)"/><path class="cls-2" d="M219.32,85.89l.45.09-.45.09Z" transform="translate(-24.44 -20.45)"/><path class="cls-2" d="M277.65,85.89,279,86l-1.36.09Z" transform="translate(-24.44 -20.45)"/><path class="cls-2" d="M299.69,85.89,301,86l-1.35.09Z" transform="translate(-24.44 -20.45)"/><path class="cls-2" d="M213.9,89.85l.81,3.32h-.18Z" transform="translate(-24.44 -20.45)"/><path class="cls-2" d="M214.8,93.44l.82,4.23h-.18l-.73-3.6Z" transform="translate(-24.44 -20.45)"/><path class="cls-2" d="M26.25,95.06l.09.63h-.18Z" transform="translate(-24.44 -20.45)"/><path class="cls-2" d="M26.07,96l.09.81-.63,3.14-.09-1Z" transform="translate(-24.44 -20.45)"/><path class="cls-2" d="M215.71,97.94l.63,3.5v1.26l.18.18.18,3.41h-.18V104.5l-.18-.18v-1.44l-.72-4.14Z" transform="translate(-24.44 -20.45)"/><path class="cls-2" d="M25.34,100.09l.1,1h-.19Z" transform="translate(-24.44 -20.45)"/><path class="cls-2" d="M25.16,101.35l.09,1.17h-.18Z" transform="translate(-24.44 -20.45)"/><path class="cls-2" d="M25,102.79l.09,1.35h-.18Z" transform="translate(-24.44 -20.45)"/><path class="cls-2" d="M24.8,104.41l.09,1.7h-.18Z" transform="translate(-24.44 -20.45)"/><path class="cls-2" d="M24.62,106.38l.09,2.61h-.18Z" transform="translate(-24.44 -20.45)"/><path class="cls-2" d="M216.79,106.56l.09,2.61h-.18Z" transform="translate(-24.44 -20.45)"/><path class="cls-2" d="M217,109.62l.09,7.64h-.18Z" transform="translate(-24.44 -20.45)"/><path class="cls-2" d="M216.79,117.53l.09,2.78-.18.18-.09,1.89-.09-1.89.18-.18Z" transform="translate(-24.44 -20.45)"/><path class="cls-2" d="M24.62,117.71l.09,2.6h-.18Z" transform="translate(-24.44 -20.45)"/><path class="cls-2" d="M24.8,120.58l.45,4.77h-.18l-.18-2.7-.18-.18Z" transform="translate(-24.44 -20.45)"/><path class="cls-2" d="M216.43,122.56l.09,1.35h-.18Z" transform="translate(-24.44 -20.45)"/><path class="cls-2" d="M216.25,124.18l.09,1.17h-.18Z" transform="translate(-24.44 -20.45)"/><path class="cls-2" d="M25.34,125.62l1.18,6.92h-.18l-1.09-5.75Z" transform="translate(-24.44 -20.45)"/><path class="cls-2" d="M216.07,125.62l.09,1H216Z" transform="translate(-24.44 -20.45)"/><path class="cls-2" d="M215.89,126.88l.09,1-.45,2.07-.09-.81Z" transform="translate(-24.44 -20.45)"/><path class="cls-2" d="M215.34,130.11l.1.63h-.19Z" transform="translate(-24.44 -20.45)"/><path class="cls-2" d="M215.16,131l.09.63h-.18Z" transform="translate(-24.44 -20.45)"/><path class="cls-2" d="M215,131.91l.09.63-1.35,5.12-.09-.45Z" transform="translate(-24.44 -20.45)"/><path class="cls-2" d="M26.61,132.81l1.53,6H28l-1.44-5.39Z" transform="translate(-24.44 -20.45)"/><path class="cls-2" d="M213.54,137.84l.09.45-2,6.11-1.71,4-.09-.27,1.62-3.78Z" transform="translate(-24.44 -20.45)"/><path class="cls-2" d="M28.23,139.1l.82,2.61h-.18l-.73-2.16Z" transform="translate(-24.44 -20.45)"/><path class="cls-2" d="M29.14,142l1,2.78H30Z" transform="translate(-24.44 -20.45)"/><path class="cls-2" d="M30.22,145l2.8,6.74A90.32,90.32,0,0,0,38.8,162.2a94.37,94.37,0,0,0,13.27,16.27A96.19,96.19,0,0,0,82,198.33l-.28.09a96,96,0,0,1-31.87-22,94.52,94.52,0,0,1-12.1-15.64l-4.88-9-2.53-5.93Z" transform="translate(-24.44 -20.45)"/><path class="cls-2" d="M209.75,148.63l.09.27a92.2,92.2,0,0,1-21.23,30.46,93.67,93.67,0,0,1-25.46,17.44v-.18a94.34,94.34,0,0,0,30.07-22.2A90.74,90.74,0,0,0,209.75,148.63Z" transform="translate(-24.44 -20.45)"/><path class="cls-2" d="M162.61,196.8l.27.09-3.34,1.53v-.18Z" transform="translate(-24.44 -20.45)"/><path class="cls-2" d="M82.24,198.42,87,200.31l-.27.09L83,199l-.72-.36Z" transform="translate(-24.44 -20.45)"/><path class="cls-2" d="M159,198.42l.27.09-4.79,1.89v-.18Z" transform="translate(-24.44 -20.45)"/><path class="cls-2" d="M87.29,200.4l4.07,1.34-.45.09-3.26-1.08Z" transform="translate(-24.44 -20.45)"/><path class="cls-2" d="M153.94,200.4l.27.09-4.06,1.34v-.18Z" transform="translate(-24.44 -20.45)"/><path class="cls-2" d="M91.63,201.83l1.53.45-.45.09L91.63,202Z" transform="translate(-24.44 -20.45)"/><path class="cls-2" d="M149.42,201.83l.45.09-1.53.45v-.18Z" transform="translate(-24.44 -20.45)"/><path class="cls-2" d="M93.43,202.37l1,.27-.45.09-.55-.18Z" transform="translate(-24.44 -20.45)"/><path class="cls-2" d="M147.62,202.37l.45.09-4.61,1.17v-.18A14.08,14.08,0,0,0,147.62,202.37Z" transform="translate(-24.44 -20.45)"/><path class="cls-2" d="M94.7,202.73l3.34.81-.63.09-2.71-.72Z" transform="translate(-24.44 -20.45)"/><path class="cls-2" d="M98.31,203.63l6,1.17-.81.09-5.24-1.08Z" transform="translate(-24.44 -20.45)"/><path class="cls-2" d="M142.56,203.63l.63.09-1.35.27v-.18Z" transform="translate(-24.44 -20.45)"/><path class="cls-2" d="M140.93,204l.64.09-5.87,1.17-2.35.18v-.18l2.35-.18Z" transform="translate(-24.44 -20.45)"/><path class="cls-2" d="M104.63,204.89l3.52.45-1.17.09-.18-.18-2.17-.18Z" transform="translate(-24.44 -20.45)"/><path class="cls-2" d="M108.42,205.43l3,.27-1.53.09c-.21-.33-.69-.39-1.45-.18Z" transform="translate(-24.44 -20.45)"/><path class="cls-2" d="M131.72,205.43l1.36.09-3,.27v-.18h1.44Z" transform="translate(-24.44 -20.45)"/><path class="cls-2" d="M111.68,205.79l2.07.09-2.07.09Z" transform="translate(-24.44 -20.45)"/><path class="cls-2" d="M127.75,205.79l2.08.09-2.08.09Z" transform="translate(-24.44 -20.45)"/><path class="cls-2" d="M114,206l3.16.09-3.16.09Z" transform="translate(-24.44 -20.45)"/><path class="cls-2" d="M124.32,206l3.16.09-3.16.09Z" transform="translate(-24.44 -20.45)"/><path class="cls-3" d="M44.67,56.59l-.18.36Z" transform="translate(-24.44 -20.45)"/><path class="cls-3" d="M78.44,57.67l1,.09-1,.09Z" transform="translate(-24.44 -20.45)"/><path class="cls-3" d="M80.07,57.67l1.17.09-1.17.09Z" transform="translate(-24.44 -20.45)"/><path class="cls-3" d="M43.41,58.21l-.18.36Z" transform="translate(-24.44 -20.45)"/><path class="cls-3" d="M309.08,74.93l.09.45H309Z" transform="translate(-24.44 -20.45)"/><path class="cls-3" d="M236.11,76.19l8.58.08-8.58.09Z" transform="translate(-24.44 -20.45)"/><path class="cls-3" d="M162.07,101.35l-.19.36Z" transform="translate(-24.44 -20.45)"/><path class="cls-3" d="M191.14,132.81l-.18.36Z" transform="translate(-24.44 -20.45)"/><path class="cls-3" d="M43.23,145.93l.18.36Z" transform="translate(-24.44 -20.45)"/><path class="cls-3" d="M130.64,154.56l-.18.36Z" transform="translate(-24.44 -20.45)"/><path class="cls-3" d="M52.07,156.54l.55.71Z" transform="translate(-24.44 -20.45)"/><path class="cls-3" d="M47,172.89l.18.36Z" transform="translate(-24.44 -20.45)"/><path class="cls-3" d="M194.39,172.89l-.18.36Z" transform="translate(-24.44 -20.45)"/><path class="cls-3" d="M57.67,183.32l.18.36Z" transform="translate(-24.44 -20.45)"/><path class="cls-4" d="M119.44,20.64l.54.18c.18-.3.61-.36,1.27-.18h.36l.54.18h4.7L127,21h2.16l1.81.36h.36c.66-.18,1.09-.12,1.27.18H133l.9.18h1.45l1.08.36h1.26l3.62.9,2.52.36,10.3,3.05,6,2.34,7.4,3.6,6.14,3.59L181,41.13a92.45,92.45,0,0,1,10.93,10q-.14.41.27.27A90.24,90.24,0,0,1,202.79,65l4.7,8.27,1.44,3.5h-3.7l-.18-.18-.72.18-.18-.18h-5.24l-.18-.18H195.3l-.18-.17-.18.17h-2l-.36-.17h-5.06l-.18-.18h-3.79l-.36-.18-.36.18h-.37l-1.62-.18-6.23,8.35-.36.81q-.49-.19-.36.27l-11.2,15.46-.91.9-2.52,3.86c-.33-.13-.45,0-.37.27l-3.43,5q-.48-.2-.36.27l-1.62,2.42c-.36-.14-.49,0-.36.45a109.9,109.9,0,0,0-7.77,10.7q-.5-.2-.36.27l-3.16,4.4H138l-.36-.18-.54.18h-.36l-.36-.18h-.36l-.63-.27-.37-1.61v-.36l-.9-5.4V121l-.54-2.69-.54-1.44v-.36l-.18-.36v-.36l-1.45-5.93-.9-2.34V107l-.54-.9v-.71l-.36-.36-.55-2-.36-.36-1.44-4V98.2l-2.71-5.75-2-3.41-.72-1.8-.54-.54v-.36L118.09,81l-2.71-3.78-4-4.31v-.27q-.48.19-.36-.27a34.81,34.81,0,0,0-7.76-6.74v-.36h-.54c.13-.32,0-.44-.28-.36L99.21,62.7l-6.68-2.87-1.26-.18L88,58.57l-1.45-.18L85.85,58a5,5,0,0,1-3.07-.36c-.15.28-.51.34-1.09.18l-.54-.18-1.62.18c-.15-.26-.51-.32-1.09-.18l-2.71.54h-.36l-2.16.18-2.53.72h-.36L68,59.65,61.65,62l-6,3.06-5.42,3.42-4.34,4L44.4,73.49,39,80.05v.36l-1.62,2.34-1.63,3L33.2,91.73l-2,8.09v.9l-.54,2.34v6.29L31,111l.18,4,.91,4.14v.36l.72,3,.18,2,2,5.39.18,1.26L36.81,134l.55,1.61,2.16,4.32L43.13,146l5.78,7.19,3.71,4,.45.27q-.14.42.27.27l.27.54h.27l2.17,2.16,1,.54q-.2.48.27.36l7,5.21A12,12,0,0,1,68,168.76l9.21,4.49,5.06,1.8,1.26.72h.36l3.43,1.08.36.36H88l2.52.9h.91l1.26.36,1.81.71h.36l1.44.18.73.36h.36l2.53.36.9.36.36-.18.18.18,2.35.18,4,.72h.36c.75-.2,1.23-.14,1.45.18h.36l4.51.18.19.18h8.66l.19-.18,5.23-.18.18-.18h1.63l2-.36h1.44l.9-.36,3.8-.54,2-.72h.73l5.59-1.61,5.24-2,4.52-2,4.69-2.52,5.78-3.41,6.5-4.49.64-.18q-.21-.49.27-.36a1.63,1.63,0,0,1,1.35-.9q-.19-.5.27-.36l3.71-2.88q-.21-.48.27-.36l5.14-4.94.27-.45c.28.1.37,0,.28-.27l1.8-1.8,3.7-4.58q.42.15.27-.27l5.42-7.19,4.34-7.37,1.08-2.7.9-1.43V127l2-4.5v-.54l.36-.36v-.36l1.45-3.77v-.36l2-6.83.18-1.62.37-.54v-.36l.9-4.49q-.23-.49-.45-.09H207.4l-.54.18h-.37q-1-.18-1.17.45v.54L204.24,107l.18.18-.36.72L203,111.33l-2.16,5-.37.36v.36l-3.07,6.29-2.16,3.6-3.43,5.21-3.07,4c-.33-.13-.45,0-.37.27l-3.88,4.59q-.39-.14-.27.27l-4.79,4.94-.54.18-5.06,4.67-2.25,1.44q.19.48-.27.36l-7.05,4.85-6.68,3.78-6.14,2.69L144,166.6h-.36l-.9.36h-.36l-1.81.54h-.36l-.54.18h-.36l-3.07.72h-.36l-5.78.9h-.36l-.73.18H125.4l-.18.18H112.94l-.54-.18-4.34-.18-2.52-.54-3.44-.36-3.43-.9-2.53-.36-5-1.62-1.27-.72h-.54l-3.79-1.43L80.61,161l-4.33-2.7-4.07-3.05c.14-.33,0-.45-.27-.36l-4.6-4-1.27-1.7L65,148.36l-.9-1.35c-.33.13-.45,0-.37-.27l-2.52-3.06-2.53-4-3.61-7-.73-2.34L54,130l-1.62-4.13-.55-2.7-1.26-4v-.9l-.72-2.7v-.36L49.46,114l-.18-2.15-.19-.18v-1.62l-.18-.18v-.36l-.18-3.06-.36-1.61V99.1l.18-.18V97.49l.18-.18.36-3.6.37-1.08V91.55L50,90.3v-.36l.36-2L52,83.47l1.63-2.7,1.26-2.88,1.72-2.6q.42.13.27-.27l4.25-4.41,1.71-1.08q-.2-.48.27-.36l2.71-2,2.89-1.44,2.71-.9a2.59,2.59,0,0,0,2-.18h.36l3.07-.18.18.18h2l3.07.54,1.26.54H84l2.53.72a33.9,33.9,0,0,1,10,5.84c-.08.28,0,.37.28.27l5.32,4.94,2,2.16L108.33,86l4.16,7.73,3.25,7.37,3.25,9.35.18,1.44.36.54v.36l3.07,11.5,1.09,6.65.36.9.18,2.34.9,4.85v1.44l.36,1.26.18,2.69.36,1.44v1.26l.18.18v1.62l.19.18v1.79l.18.18v1.8l.18.18.18,2.52v.36l.18,2.42.72-.18.36-.9q.5.21.36-.27l1.63-2.06.54-.27.36-.72,8-9.44q.42.15.27-.27l2.62-3.14c.27.09.37,0,.27-.27l3.43-4.23q.5.19.36-.27l9.3-11q.42.13.27-.27l.36-.63c.33.13.45,0,.37-.27l2.8-3.33q.4.15.27-.27l2.53-3.14q.48.2.36-.27l1.26-1.71q.5.19.36-.27l1-1.17q.4.15.27-.27l.36-.63c.32.14.44,0,.36-.26l.81-1q.42.14.27-.27l.81-1c.28.09.37,0,.28-.27l4.33-5,.72-1.17q.5.2.36-.27L179.22,97q.42.13.27-.27l1.72-2.07q.42.15.27-.27L185,90.21q.42.14.27-.27l8.58-10.16,2.53-.54h.36l.72-.18h.37l10.83-2H209q.42-.12.27.27l2.35,5.58,2.17,6.83,1.81,8.09,1.08,8.8v2.52l.18.18v7.91l-.18.18v2.69l-.18.18v2.16l-.18.18-.18,2.88-.18.18-.36,3.23-.37.9v.36l-.18,1.62-1.44,5.93-2.17,6.65-1.62,4.14-3.25,6.83a91.44,91.44,0,0,1-13.82,19.5q-.41-.12-.27.27A95.81,95.81,0,0,1,163,196.8l-7.23,3.06-7.58,2.51L139,204.53H138l-2.34.54h-1.27l-1.26.36-3.07.18-.18.18h-.36l-6.51.36h-5.23l-.18-.18-.37.18-.18-.18h-3.25l-.18-.18H111.5l-.19-.18-3.07-.18-.18-.18H107l-.18-.18h-1.08l-3.26-.72h-.9l-.9-.36h-.9l-.73-.36-1.62-.18-6-1.62-6.68-2.33-6.33-2.7-8.12-4.31L63.45,188l-7-5.39q.2-.48-.27-.36l-5.15-4.76L47,172.89q-.41.15-.27-.27L43,168.13l-.18-.63q-.48.19-.36-.27l-5-7.37-4.16-7.73-4.15-10.24-2.53-9.17v-.36l-1.27-6.83-.72-8.45v-7.55l.18-.18v-2.88l.36-2v-1.8l1.63-9.35,1.63-6.11.36-.54L30,82.39l2.35-5.76,4.33-8.44,5.42-8.27,5.06-6.29,6.77-6.92q.42.13.27-.27A95.7,95.7,0,0,1,73.93,32.33l5.78-2.88,7-2.88,6.68-2.15,7.41-1.8h.36l7.59-1.26h.36l3.07-.18.18-.18h.36l6.5-.18Z" transform="translate(-24.44 -20.45)"/><path class="cls-4" d="M252.73,64.32c1.17-.14,1.92.13,2.26.81l.36.9V82.12h8.76l1.26.36.64.63.18,1.25-.82,1-1.26.36H253.63l-1.44-.36-.81-.81-.18-.72V66l.81-1.35Z" transform="translate(-24.44 -20.45)"/><path class="cls-4" d="M275.67,64.32H278l2.34.54a10.18,10.18,0,0,1,3.53,2.25l1.44,2.33.18,1.26-.36,1.08-.45.45a2.33,2.33,0,0,1-1.81.18l-3.07-4a5.4,5.4,0,0,0-3.25-.9l-2.17.54-1.35.89L272,70.52,271.42,72l-.36,1.62V77l.36,1.8.55,1.26,1.71,1.89,1.63.72,1.44.18,2.35-.54L280.82,81l1.44-3.06.45-.45,1.63-.18,1,.81a2.31,2.31,0,0,1,.18,1.8,6.87,6.87,0,0,1-2.44,4l-.54.36a7.61,7.61,0,0,1-3.43,1.62h-.36l-2.53.18-3.61-.72-2.8-1.88-.36-.54a8.33,8.33,0,0,1-2-3.24l-.54-2.16-.18-2.69.18-.18.18-2.7.72-2.16a10.26,10.26,0,0,1,2.8-3.5L272.78,65Z" transform="translate(-24.44 -20.45)"/><path class="cls-4" d="M297.52,64.32h2.53l2,.36a8.41,8.41,0,0,1,4.42,2.61l.36.54.54.54,1.09,2.15.54,2.16.18,2.16-.18.54.18.36-.18.18v1.61l-.72,2.7A9.23,9.23,0,0,1,306,83.55l-1.44,1.08-2,.9-3.25.54H299l-3.25-.36-2-.72a8.93,8.93,0,0,1-3.16-2.6l-1.27-2.34-.72-2.7V72.86a10.52,10.52,0,0,1,3.16-6.2l3.07-1.8Zm1,3.24-2.16.54-.91.54-1.62,1.79-1.08,3.42c-.25,3.23.36,5.63,1.8,7.19l2,1.26,2.35.54,2.34-.54,1.27-.72,1.62-2.16.73-2.52V73.67l-.55-2.16-.72-1.44a4.71,4.71,0,0,0-3.79-2.33h-.36Z" transform="translate(-24.44 -20.45)"/><path class="cls-4" d="M212.82,64.68h14.63l1.35.81.18,1.44-.81,1-.36.18h-5.42l-.27.27v16l-.63,1.17a2.24,2.24,0,0,1-1.63.54l-.72-.18-.82-.81-.36-.9V68.1h-5.69l-1-.81-.18-1.08.36-1Z" transform="translate(-24.44 -20.45)"/><path class="cls-4" d="M233.77,64.68h12.28l1.17.63.18,1.62-.45.63-.72.36H235.84v5.21H245l.91.18.63.63.18,1.08-.63,1-1.27.35-.18-.17h-8.49l-.27.26V82.3h10.57l1.35,1c.18,1.07,0,1.76-.63,2.06l-1.26.36H234.13c-.15-.26-.51-.32-1.09-.18l-1-.63-.36-.72v-18L232.5,65Z" transform="translate(-24.44 -20.45)"/></svg>